<?xml version="1.0" encoding="UTF-8" standalone="no"?>
<!-- Created with Inkscape (http://www.inkscape.org/) -->

<svg
   width="296mm"
   height="90mm"
   viewBox="0 0 296 90"
   version="1.1"
   id="svg1"
   xmlns="http://www.w3.org/2000/svg"
   xmlns:svg="http://www.w3.org/2000/svg">
  <defs
     id="defs1" />
  <g
     id="layer1">
    <path
       style="fill:#ffffff;stroke-width:0.627774"
       d="m 37.095717,65.798052 c -5.984498,-0.83038 -9.229768,-4.50113 -9.252658,-10.46577 -0.0296,-7.71734 3.17682,-10.08228 17.600476,-12.98144 4.686424,-0.941957 4.392575,-0.940627 4.392575,-0.02 v 0.74318 l -1.489781,0.53289 c -5.204289,1.86156 -6.360768,3.7177 -6.14895,9.86898 0.213091,6.18822 2.47637,8.16629 6.514326,5.69341 2.792525,-1.71017 1.573837,1.98407 -1.440578,4.36687 -2.533093,2.00231 -6.189043,2.81498 -10.17541,2.26185 z m 83.673173,0.007 c -4.02649,-0.55917 -7.05796,-2.61969 -8.55528,-5.8151 -1.2515,-2.67081 -1.24843,-2.62119 -1.24843,-20.202427 V 23.93843 l 0.91309,-0.114399 c 0.5022,-0.06292 3.50819,-0.372489 6.67998,-0.687939 3.17179,-0.315444 6.08891,-0.618747 6.48248,-0.673997 l 0.71559,-0.100457 0.0533,16.100855 c 0.0604,18.237529 -0.048,17.016009 1.64503,18.540969 1.75821,1.58369 6.08766,1.72591 8.02252,0.26353 1.68884,-1.27644 1.45791,0.84343 -0.33951,3.1166 -3.21415,4.06488 -8.84344,6.1889 -14.3688,5.42157 z m 121.71245,-0.0108 c -5.96737,-0.77414 -9.25803,-4.52691 -9.25803,-10.55817 0,-7.627 3.1345,-9.95793 17.20457,-12.79395 5.16472,-1.041027 4.74525,-1.035277 4.67262,-0.0641 l -0.0591,0.79047 -1.73007,0.61955 c -4.84132,1.73371 -6.08773,3.88235 -5.80452,10.00624 0.26959,5.82924 2.62336,7.75303 6.57468,5.37365 2.62363,-1.57989 1.74101,1.53592 -1.16738,4.12109 -2.42604,2.15641 -6.17741,3.05721 -10.43277,2.50517 z M 137.68511,44.855632 c 0,-11.524305 0.052,-20.95328 0.11556,-20.95328 0.33625,0 13.53209,-1.360681 14.06139,-1.449931 l 0.62475,-0.105347 v 20.953288 20.95328 l -0.62475,0.10341 c -0.51765,0.0857 -13.76476,1.45187 -14.0779,1.45187 -0.0545,0 -0.0991,-9.42898 -0.0991,-20.95329 z m -86.357422,4.85386 c -0.07107,-16.928396 -0.03691,-16.392905 -1.190999,-18.670412 -1.650341,-3.256828 -7.852691,-4.919569 -12.6994,-3.404474 -2.486912,0.77741 -2.463331,-0.844814 0.03069,-2.110827 9.846223,-4.998159 24.135168,-3.377116 27.420561,3.110789 1.245514,2.459606 1.17792,1.380996 1.242426,19.825414 l 0.05866,16.77224 H 58.791245 51.392864 Z M 74.44152,44.585322 V 23.93843 l 0.913091,-0.114399 c 0.502201,-0.06292 3.508194,-0.372489 6.679985,-0.687939 3.171792,-0.315444 6.091281,-0.619124 6.487755,-0.674839 l 0.720862,-0.101303 v 21.436142 21.43613 H 81.842367 74.44152 Z m 86.88786,0 V 23.93843 l 0.91309,-0.11561 c 0.5022,-0.06359 3.50819,-0.375158 6.67998,-0.692378 3.1718,-0.317227 6.09128,-0.626939 6.48776,-0.688254 l 0.72086,-0.111486 v 21.45076 21.45076 h -7.40084 -7.40085 z m 25.75498,5.8931 c -0.004,-15.396742 -0.0683,-16.821625 -0.82648,-18.308382 -1.13356,-2.222859 -4.52941,-2.828222 -7.5553,-1.346851 -1.47233,0.72081 -1.41813,0.728732 -1.41813,-0.207323 0,-0.943902 1.03255,-2.395616 2.92763,-4.116106 6.41941,-5.827995 17.37353,-5.020452 20.32942,1.498704 1.15618,2.549936 1.15613,2.548944 1.15613,20.693708 v 16.54005 h -7.30473 -7.30473 z m 25.52659,-1.24951 -0.0524,-16.003308 -0.53333,-0.96116 c -1.28279,-2.31184 -4.3982,-2.96959 -7.3733,-1.556703 -2.19601,1.042889 -2.58208,0.328809 -0.95908,-1.7739 6.99758,-9.065852 20.49706,-8.454168 23.32475,1.056876 0.30293,1.018908 0.33849,2.664881 0.39281,18.180915 l 0.0597,17.06059 h -7.40345 -7.40345 z m 44.05769,1.05728 c -0.007,-16.251896 -0.0463,-16.947344 -1.06581,-19.031296 -1.87621,-3.834876 -6.77025,-5.024218 -13.87335,-3.371491 -0.85871,0.199802 -0.60664,-1.367291 0.31335,-1.94807 7.72986,-4.879692 23.12454,-4.157438 27.27088,1.279441 2.22906,2.922852 2.16333,2.266107 2.16333,21.612366 v 16.40508 h -7.40084 -7.40086 z M 239.50391,39.208315 c -3.14369,-0.880818 -4.63747,-4.414902 -3.15034,-7.453315 1.81467,-3.707633 7.68467,-3.632162 9.38946,0.120714 1.87199,4.12094 -1.89611,8.549451 -6.23912,7.332601 z m -206.103451,-0.3797 c -4.82306,-2.250768 -3.46679,-9.503332 1.848531,-9.884912 3.317465,-0.238152 5.55232,1.834851 5.55232,5.150219 0,3.965032 -3.817179,6.407083 -7.400851,4.734693 z m 57.188362,-2.118188 c 0,-8.642375 7.184756,-15.456697 14.657519,-13.901807 l 0.72086,0.149994 v 5.97151 5.971511 l -0.62474,-0.09637 c -0.34362,-0.05298 -1.18703,-0.200737 -1.87425,-0.328294 -3.39988,-0.63107 -7.998094,0.36522 -11.203373,2.427413 -1.642113,1.056499 -1.676016,1.052576 -1.676016,-0.193957 z"
       id="path1" />
  </g>
</svg>
