<?xml version="1.0" encoding="UTF-8" standalone="no"?>
<!-- Created with Inkscape (http://www.inkscape.org/) -->

<svg
   width="152.16187mm"
   height="47.75729mm"
   viewBox="0 0 152.16187 47.75729"
   version="1.1"
   id="svg384"
   inkscape:version="1.2 (dc2aedaf03, 2022-05-15)"
   sodipodi:docname="Ferreyros.svg"
   xmlns:inkscape="http://www.inkscape.org/namespaces/inkscape"
   xmlns:sodipodi="http://sodipodi.sourceforge.net/DTD/sodipodi-0.dtd"
   xmlns="http://www.w3.org/2000/svg"
   xmlns:svg="http://www.w3.org/2000/svg">
  <sodipodi:namedview
     id="namedview386"
     pagecolor="#505050"
     bordercolor="#ffffff"
     borderopacity="1"
     inkscape:showpageshadow="0"
     inkscape:pageopacity="0"
     inkscape:pagecheckerboard="1"
     inkscape:deskcolor="#505050"
     inkscape:document-units="mm"
     showgrid="false"
     inkscape:zoom="3.0951141"
     inkscape:cx="287.54998"
     inkscape:cy="90.303618"
     inkscape:window-width="1920"
     inkscape:window-height="1001"
     inkscape:window-x="-9"
     inkscape:window-y="-9"
     inkscape:window-maximized="1"
     inkscape:current-layer="layer1" />
  <defs
     id="defs381" />
  <g
     inkscape:label="Capa 1"
     inkscape:groupmode="layer"
     id="layer1"
     transform="translate(-0.35825593,-0.20243515)">
    <g
       id="g171"
       transform="matrix(0.26458333,0,0,0.26458333,-0.17091073,-0.67068983)">
	<path
   d="m 273.8,183.8 c -3.6,0 -5.5,-2.3 -5.5,-6.4 V 169 h 2.2 v 8.4 c 0,2.8 1.1,4.2 3.3,4.2 2.3,0 3.4,-1.4 3.4,-4.1 V 169 h 2.2 v 8.5 c 0.1,4.1 -1.9,6.3 -5.6,6.3"
   id="path99" />

	<path
   d="m 293.2,183.6 -5.8,-9.2 c -0.4,-0.5 -0.9,-1.4 -1.1,-1.8 0,0.5 0,2.6 0,3.4 v 7.6 h -2.1 V 169 h 2.2 l 5.5,8.9 c 0.4,0.6 1,1.7 1.2,2.1 0,-0.5 0,-2.6 0,-3.5 V 169 h 2.1 v 14.6 z"
   id="path101" />

	<path
   d="m 309.8,183.6 -1.2,-3.5 h -5.9 l -1.2,3.5 h -2.3 l 5.3,-14.6 h 2.3 l 5.3,14.6 z m -3.1,-8.8 c -0.4,-1 -1,-2.7 -1.1,-3.4 -0.2,0.6 -0.7,2.3 -1.1,3.4 l -1.2,3.3 h 4.5 z"
   id="path103" />

	<polygon
   points="332.2,169 332.2,171.1 325,171.1 325,174.7 329.2,174.7 329.2,176.9 325,176.9 325,181.5 332.5,181.5 332.5,183.6 322.8,183.6 322.8,169 "
   id="polygon105" />

	<path
   d="m 347.6,183.6 v -7.7 c 0,-0.9 0,-2.1 0,-2.6 -0.2,0.4 -0.6,1.5 -0.9,2.3 l -3.5,8.2 -3.5,-8.2 c -0.4,-0.8 -0.8,-1.9 -0.9,-2.3 0,0.4 0,1.7 0,2.6 v 7.7 h -2.1 V 169 h 2.3 l 3.3,7.8 c 0.4,0.8 0.8,1.9 1,2.5 0.2,-0.6 0.6,-1.7 1,-2.5 l 3.2,-7.8 h 2.3 v 14.6 z"
   id="path107" />

	<path
   d="m 360.6,178.2 h -3.8 v 5.5 h -2.1 V 169 h 6.1 c 2.7,0 4.7,1.5 4.7,4.6 -0.1,3 -2.1,4.6 -4.9,4.6 m 0.1,-7.1 h -3.9 v 5 h 3.9 c 1.7,0 2.5,-1 2.5,-2.5 0,-1.6 -1,-2.5 -2.5,-2.5"
   id="path109" />

	<path
   d="m 377.2,177.6 3,6 h -2.5 l -2.9,-5.8 h -3.3 v 5.8 h -2.2 V 169 h 6.4 c 2.5,0 4.7,1.4 4.7,4.4 0,2.3 -1.3,3.7 -3.2,4.2 m -1.5,-6.5 h -4.3 v 4.7 h 4.3 c 1.5,0 2.5,-0.8 2.5,-2.4 0,-1.5 -1,-2.3 -2.5,-2.3"
   id="path111" />

	<polygon
   points="394.2,169 394.2,171.1 387,171.1 387,174.7 391.2,174.7 391.2,176.9 387,176.9 387,181.5 394.6,181.5 394.6,183.6 384.8,183.6 384.8,169 "
   id="polygon113" />

	<path
   d="m 402.8,183.8 c -2.1,0 -4,-0.9 -5.2,-2.4 l 1.6,-1.5 c 1,1.1 2.4,1.7 3.8,1.7 2,0 3,-0.7 3,-2.1 0,-1.1 -0.9,-1.7 -3.3,-2.4 -3.1,-0.9 -4.6,-1.7 -4.6,-4.3 0,-2.5 2.1,-4.1 4.8,-4.1 2,0 3.5,0.7 4.8,2 l -1.5,1.6 c -0.9,-0.9 -2,-1.4 -3.4,-1.4 -1.7,0 -2.5,0.8 -2.5,1.8 0,1 0.7,1.5 3.2,2.3 2.9,0.9 4.7,1.8 4.7,4.4 0,2.6 -1.7,4.4 -5.4,4.4"
   id="path115" />

	<path
   d="m 421.6,183.6 -1.2,-3.5 h -5.8 l -1.2,3.5 h -2.3 l 5.3,-14.6 h 2.3 l 5.3,14.6 z m -3,-8.8 c -0.4,-1 -0.9,-2.7 -1.1,-3.4 -0.2,0.6 -0.7,2.3 -1.1,3.4 l -1.2,3.3 h 4.5 z"
   id="path117" />

	<polygon
   points="436.8,177.1 436.8,183.6 434.6,183.6 434.6,169 444,169 444,171.1 436.8,171.1 436.8,175 441,175 441,177.1 "
   id="polygon119" />

	<polygon
   points="457.2,169 457.2,171.1 450,171.1 450,174.7 454.2,174.7 454.2,176.9 450,176.9 450,181.5 457.5,181.5 457.5,183.6 447.8,183.6 447.8,169 "
   id="polygon121" />

	<path
   d="m 469.6,177.6 3,6 h -2.5 l -2.9,-5.8 h -3.3 v 5.8 h -2.2 V 169 h 6.4 c 2.5,0 4.7,1.4 4.7,4.4 0,2.3 -1.2,3.7 -3.2,4.2 m -1.5,-6.5 h -4.3 v 4.7 h 4.3 c 1.5,0 2.5,-0.8 2.5,-2.4 0,-1.5 -1,-2.3 -2.5,-2.3"
   id="path123" />

	<path
   d="m 485.1,177.6 3,6 h -2.5 l -2.9,-5.8 h -3.3 v 5.8 h -2.2 V 169 h 6.4 c 2.5,0 4.7,1.4 4.7,4.4 0.1,2.3 -1.2,3.7 -3.2,4.2 m -1.4,-6.5 h -4.3 v 4.7 h 4.3 c 1.5,0 2.5,-0.8 2.5,-2.4 0,-1.5 -1.1,-2.3 -2.5,-2.3"
   id="path125" />

	<polygon
   points="502.2,169 502.2,171.1 495,171.1 495,174.7 499.2,174.7 499.2,176.9 495,176.9 495,181.5 502.5,181.5 502.5,183.6 492.8,183.6 492.8,169 "
   id="polygon127" />

	<path
   d="m 512.7,177.8 v 5.8 h -2.2 v -5.8 l -5.2,-8.8 h 2.6 l 2.3,4 c 0.5,0.9 1.2,2.4 1.5,2.9 0.2,-0.5 1,-1.9 1.5,-2.9 l 2.3,-4 h 2.5 z"
   id="path129" />

	<path
   d="m 526,183.8 c -3.8,0 -6.2,-3.1 -6.2,-7.5 0,-4.4 2.4,-7.5 6.2,-7.5 2.4,0 4,1 5,2.7 l -2,1.2 c -0.7,-1.2 -1.5,-1.8 -3,-1.8 -2.5,0 -3.9,2.1 -3.9,5.4 0,3.3 1.4,5.3 3.9,5.3 1.5,0 2.5,-0.6 3.2,-1.8 l 1.8,1.2 c -1,1.8 -2.7,2.8 -5,2.8"
   id="path131" />

	<path
   d="m 540.3,183.8 c -3.8,0 -6.2,-3.1 -6.2,-7.5 0,-4.4 2.4,-7.5 6.2,-7.5 3.8,0 6.2,3.1 6.2,7.5 0,4.4 -2.4,7.5 -6.2,7.5 m 0,-12.8 c -2.6,0 -4,2.1 -4,5.4 0,3.3 1.4,5.3 4,5.3 2.6,0 4,-2.1 4,-5.3 0,-3.4 -1.4,-5.4 -4,-5.4"
   id="path133" />

	<path
   d="m 558.6,177.6 3,6 H 559 l -2.9,-5.8 h -3.3 v 5.8 h -2.2 V 169 h 6.4 c 2.5,0 4.7,1.4 4.7,4.4 0.1,2.3 -1.2,3.7 -3.1,4.2 m -1.5,-6.5 h -4.3 v 4.7 h 4.3 c 1.5,0 2.5,-0.8 2.5,-2.4 0,-1.5 -1,-2.3 -2.5,-2.3"
   id="path135" />

	<path
   d="m 572.2,178.2 h -3.8 v 5.5 h -2.2 V 169 h 6.1 c 2.7,0 4.7,1.5 4.7,4.6 0,3 -2,4.6 -4.8,4.6 m 0.1,-7.1 h -3.9 v 5 h 3.9 c 1.7,0 2.5,-1 2.5,-2.5 0,-1.6 -1,-2.5 -2.5,-2.5"
   id="path137" />

	<rect
   x="2"
   y="3.3"
   class="st0"
   width="431.29999"
   height="143.8"
   id="rect139"
   style="clip-rule:evenodd;fill:#f9bf00;fill-rule:evenodd" />

	<rect
   x="433.29999"
   y="3.3"
   width="143.8"
   height="143.8"
   id="rect141" />

	<path
   class="st1"
   d="m 478.5,99.2 c 2.7,-2.2 3.2,-5 3.2,-7.5 V 81.1 h -14.8 v 14.3 c 0,2 -1.7,3.7 -3.7,3.7 -2.1,0 -3.6,-1.7 -3.6,-3.7 V 54.9 c 0,-2.1 1.5,-3.7 3.6,-3.7 2,0 3.7,1.7 3.7,3.7 v 14.4 h 14.8 V 54.4 c 0,-8.2 -5.4,-15 -18.6,-15 -13.5,0 -18.6,6.8 -18.6,15.1 v 42.2 c 0,8.2 6.5,14.4 14.8,14.4 h 4.6 l 14.6,-11.9"
   id="path143"
   style="fill:#ffffff" />

	<polygon
   class="st1"
   points="563.4,54.4 553.1,54.4 553.1,110.9 548.8,110.9 536.7,100.9 536.7,54.4 526.5,54.4 526.5,40.7 563.4,40.7 "
   id="polygon145"
   style="fill:#ffffff" />

	<path
   class="st1"
   d="M 517.6,40.8 H 497 l -12,53.5 22.3,-17.9 23.3,19.4 z m -14.2,32.2 4,-20.2 4,20.2 h -8"
   id="path147"
   style="fill:#ffffff" />

	<path
   class="st1"
   d="m 566.2,44.5 c 0,-2.4 2,-4.4 4.4,-4.4 2.4,0 4.4,1.9 4.4,4.4 0,2.4 -2,4.4 -4.4,4.4 -2.4,0 -4.4,-2 -4.4,-4.4 m 8.1,0 c 0,-2 -1.6,-3.6 -3.6,-3.6 -2,0 -3.6,1.6 -3.6,3.6 0,2 1.6,3.6 3.6,3.6 1.9,0 3.6,-1.6 3.6,-3.6 m -4.6,0.3 V 47 h -0.8 v -5.1 h 1.7 c 1,0 1.9,0.3 1.9,1.4 0,0.6 -0.4,1.1 -1.1,1.2 v 0 c 0.7,0.1 0.8,0.4 0.9,1 0.1,0.5 0.1,1 0.3,1.5 h -1 c -0.1,-0.3 -0.1,-0.6 -0.2,-0.9 -0.1,-0.4 -0.1,-0.8 -0.3,-1.1 -0.2,-0.2 -0.5,-0.2 -0.8,-0.2 z m 0.9,-0.8 c 0.8,0 0.9,-0.3 0.9,-0.7 0,-0.4 -0.2,-0.6 -0.8,-0.6 h -1 V 44 h 0.9"
   id="path149"
   style="fill:#ffffff" />

	<polygon
   class="st0"
   points="507.3,80.6 544.6,111.1 468.9,111 "
   id="polygon151"
   style="clip-rule:evenodd;fill:#f9bf00;fill-rule:evenodd" />

	<path
   d="m 297.6,58.6 h -8 -1 l -0.3,0.9 -6.1,16.2 -5.7,-16.2 -0.3,-0.9 h -1 -8.6 -2.1 l 0.8,1.9 11.5,27.9 v 0.1 0 c 0.4,0.8 0.4,2.1 -0.2,3 -0.4,0.7 -1.2,1.6 -2.9,1.7 -1.4,0.1 -2,-0.1 -2.1,-0.1 L 269.4,92 v 2.3 5.9 1 l 1,0.3 c 1.6,0.4 3.6,0.7 5.2,0.7 5.6,0 8.2,-4.9 11.1,-11.3 0,0 12.1,-30.5 12.1,-30.5 l 0.7,-1.9 h -1.9 z"
   id="path153" />

	<path
   d="m 169.2,81.7 h -23.6 c 0,4.8 3.1,9.1 9.9,9.1 4.1,0 8.3,-1.5 11.3,-3.1 l 0.2,9.1 c -3.9,1.5 -8.5,2.3 -12.6,2.3 -14,0 -20.3,-8.5 -20.3,-20.7 0,-10.8 6.3,-20.5 17.7,-20.5 3.6,0 17.3,0 17.3,20.9 l 0.1,2.9 m -11.1,-6.6 c 0,-5 -1.3,-9.8 -6.3,-9.8 -6.2,0 -6.2,7.7 -6.2,9.8 z"
   id="path155" />

	<path
   d="m 174.1,66.9 c 0,-3.8 -0.1,-6.3 -0.3,-8.4 h 11 c 0.1,2.4 0.2,4.8 0.3,7.2 h 0.1 c 2.5,-4.3 4.1,-7.8 11.1,-7.8 h 1.8 v 11.2 c -1.3,-0.3 -2.4,-0.5 -4.1,-0.5 -7.1,0 -7.9,6.1 -7.9,12 V 98.5 H 174 Z"
   id="path157" />

	<path
   d="m 203.1,66.9 c 0,-3.8 -0.1,-6.3 -0.3,-8.4 h 11 c 0.1,2.4 0.2,4.8 0.3,7.2 h 0.1 c 2.5,-4.3 4.1,-7.8 11.1,-7.8 h 1.8 v 11.2 c -1.3,-0.3 -2.4,-0.5 -4.1,-0.5 -7,0 -7.9,6.1 -7.9,12 V 98.5 H 203 V 66.9 Z"
   id="path159" />

	<path
   d="m 263.9,81.7 h -23.5 c 0,4.8 3.1,9.1 9.9,9.1 4.1,0 8.3,-1.5 11.3,-3.1 l 0.2,9.1 c -3.9,1.5 -8.5,2.3 -12.7,2.3 -14,0 -20.3,-8.5 -20.3,-20.7 0,-10.8 6.3,-20.5 17.7,-20.5 3.6,0 17.3,0 17.3,20.9 l 0.1,2.9 m -11,-6.6 c 0,-5 -1.3,-9.8 -6.3,-9.8 -6.2,0 -6.2,7.7 -6.2,9.8 z"
   id="path161" />

	<path
   d="m 303.2,66.9 c 0,-3.8 -0.1,-6.3 -0.3,-8.4 h 11 c 0.1,2.4 0.3,4.8 0.3,7.2 h 0.1 c 2.5,-4.3 4.1,-7.8 11.1,-7.8 h 1.8 v 11.2 c -1.3,-0.3 -2.4,-0.5 -4.1,-0.5 -7,0 -7.9,6.1 -7.9,12 v 17.9 h -12.1 z"
   id="path163" />

	<path
   d="m 347.5,57.9 c 12.3,0 18.8,8.5 18.8,20.5 0,12.1 -6.5,20.7 -18.8,20.7 -12.3,0 -18.8,-8.6 -18.8,-20.7 -0.1,-12 6.5,-20.5 18.8,-20.5 m 0,32.9 c 4.2,0 6.2,-4.6 6.2,-12.4 0,-7.8 -2,-12.2 -6.2,-12.2 -4.2,0 -6.2,4.4 -6.2,12.2 -0.1,7.8 1.9,12.4 6.2,12.4"
   id="path165" />

	<path
   d="m 394.9,68.6 c -3.2,-1.3 -6.2,-2.1 -9.8,-2.1 -3.2,0 -4.5,1.5 -4.5,2.9 0,2.5 1.8,3.3 8.4,5.8 4.1,1.6 8.4,4.1 8.4,11.7 0,8.9 -6.7,12.4 -14.7,12.4 -3.5,0 -8.9,-0.4 -13.1,-1.9 l 0.3,-9.4 c 2.9,1.8 6.6,2.8 10,2.8 5.7,0 6.1,-2 6.1,-3.8 0,-1.8 -3.2,-2.5 -8.4,-4.7 -4.2,-1.8 -8.4,-5.1 -8.4,-12.3 0,-4.3 3.1,-12 15,-12 5,0 9.1,0.9 11.1,1.6 z"
   id="path167" />

	<polygon
   points="130.2,43.5 93.5,43.5 93.5,66.6 73.9,66.6 73.9,81.7 93.5,81.7 93.5,101.1 109.9,101.1 109.9,81.7 130.2,81.7 130.2,66.6 109.9,66.6 109.9,58.6 130.2,58.6 "
   id="polygon169" />

</g>
  </g>
</svg>
