<?xml version="1.0" encoding="utf-8"?>
<!-- Generator: Adobe Illustrator 25.2.0, SVG Export Plug-In . SVG Version: 6.00 Build 0)  -->
<svg version="1.1" id="Capa_1" xmlns="http://www.w3.org/2000/svg" xmlns:xlink="http://www.w3.org/1999/xlink" x="0px" y="0px"
	 viewBox="0 0 841.89 595.28" style="enable-background:new 0 0 841.89 595.28;" xml:space="preserve">
<style type="text/css">
	.st0{fill-rule:evenodd;clip-rule:evenodd;fill:#F9BF00;}
	.st1{fill:#FFFFFF;}
</style>
<g>
	<path d="M405.25,387.9c-3.62,0-5.5-2.34-5.5-6.37v-8.48h2.19v8.42c0,2.75,1.15,4.23,3.34,4.23c2.3,0,3.39-1.42,3.39-4.09v-8.57
		h2.19v8.53C410.87,385.67,408.88,387.9,405.25,387.9"/>
	<path d="M424.63,387.67l-5.82-9.18c-0.36-0.55-0.86-1.42-1.1-1.8c0,0.54,0.02,2.57,0.02,3.39v7.58h-2.13v-14.63h2.24l5.55,8.92
		c0.38,0.6,1,1.69,1.21,2.06c0-0.55-0.02-2.64-0.02-3.45v-7.54h2.13v14.63H424.63z"/>
	<path d="M441.23,387.67l-1.24-3.47h-5.85l-1.21,3.47h-2.28l5.27-14.63h2.32l5.32,14.63H441.23z M438.15,378.87
		c-0.36-1.05-0.95-2.74-1.1-3.37c-0.17,0.63-0.69,2.3-1.07,3.39l-1.17,3.34h4.51L438.15,378.87z"/>
	<polygon points="454.18,387.67 454.18,373.04 463.59,373.04 463.59,375.18 456.38,375.18 456.38,378.79 460.57,378.79 
		460.57,380.93 456.38,380.93 456.38,385.54 463.91,385.54 463.91,387.67 	"/>
	<path d="M479,387.67v-7.74c0-0.87,0.02-2.15,0.04-2.57c-0.17,0.42-0.58,1.46-0.94,2.3l-3.55,8.23l-3.51-8.23
		c-0.36-0.84-0.78-1.88-0.94-2.3c0.02,0.42,0.04,1.7,0.04,2.57v7.74h-2.07v-14.63h2.26l3.29,7.79c0.35,0.84,0.81,1.91,1,2.51
		c0.21-0.6,0.63-1.66,0.97-2.51l3.23-7.79h2.33v14.63H479z"/>
	<path d="M491.97,382.21h-3.82v5.46h-2.15v-14.63h6.12c2.69,0,4.7,1.54,4.7,4.58C496.82,380.63,494.81,382.21,491.97,382.21
		 M492.08,375.11h-3.93v5.03h3.93c1.67,0,2.5-0.95,2.5-2.53C494.58,376.01,493.6,375.11,492.08,375.11"/>
	<path d="M508.58,381.69l2.99,5.98h-2.53l-2.9-5.79h-3.3v5.79h-2.16v-14.63h6.41c2.55,0,4.71,1.36,4.71,4.37
		C511.8,379.75,510.56,381.2,508.58,381.69 M507.09,375.11h-4.26v4.71h4.26c1.46,0,2.49-0.76,2.49-2.35
		C509.58,375.95,508.58,375.11,507.09,375.11"/>
	<polygon points="516.23,387.67 516.23,373.04 525.64,373.04 525.64,375.18 518.42,375.18 518.42,378.79 522.62,378.79 
		522.62,380.93 518.42,380.93 518.42,385.54 525.97,385.54 525.97,387.67 	"/>
	<path d="M534.19,387.9c-2.13,0-3.97-0.92-5.2-2.36l1.56-1.52c0.99,1.06,2.43,1.73,3.81,1.73c2.05,0,3.02-0.72,3.02-2.14
		c0-1.13-0.86-1.69-3.3-2.41c-3.09-0.92-4.57-1.7-4.57-4.31c0-2.53,2.13-4.07,4.82-4.07c1.98,0,3.49,0.73,4.78,1.98l-1.55,1.56
		c-0.91-0.94-1.96-1.4-3.4-1.4c-1.71,0-2.45,0.84-2.45,1.82c0,1.03,0.67,1.53,3.2,2.28c2.88,0.87,4.69,1.8,4.69,4.41
		C539.61,386.1,537.94,387.9,534.19,387.9"/>
	<path d="M553.06,387.67l-1.24-3.47h-5.84l-1.21,3.47h-2.28l5.27-14.63h2.32l5.33,14.63H553.06z M550,378.87
		c-0.37-1.05-0.94-2.74-1.11-3.37c-0.17,0.63-0.69,2.3-1.07,3.39l-1.17,3.34h4.5L550,378.87z"/>
	<polygon points="568.21,375.2 568.21,379.01 572.41,379.01 572.41,381.17 568.21,381.17 568.21,387.67 566.01,387.67 
		566.01,373.04 575.44,373.04 575.44,375.2 	"/>
	<polygon points="579.22,387.67 579.22,373.04 588.64,373.04 588.64,375.18 581.41,375.18 581.41,378.79 585.61,378.79 
		585.61,380.93 581.41,380.93 581.41,385.54 588.96,385.54 588.96,387.67 	"/>
	<path d="M601.01,381.69l2.99,5.98h-2.53l-2.91-5.79h-3.29v5.79h-2.15v-14.63h6.41c2.55,0,4.7,1.36,4.7,4.37
		C604.23,379.75,603,381.2,601.01,381.69 M599.53,375.11h-4.26v4.71h4.26c1.47,0,2.49-0.76,2.49-2.35
		C602.02,375.95,601.01,375.11,599.53,375.11"/>
	<path d="M616.55,381.69l3,5.98h-2.54l-2.9-5.79h-3.3v5.79h-2.15v-14.63h6.41c2.55,0,4.71,1.36,4.71,4.37
		C619.78,379.75,618.54,381.2,616.55,381.69 M615.07,375.11h-4.26v4.71h4.26c1.46,0,2.49-0.76,2.49-2.35
		C617.57,375.95,616.55,375.11,615.07,375.11"/>
	<polygon points="624.2,387.67 624.2,373.04 633.62,373.04 633.62,375.18 626.39,375.18 626.39,378.79 630.59,378.79 630.59,380.93 
		626.39,380.93 626.39,385.54 633.94,385.54 633.94,387.67 	"/>
	<path d="M644.07,381.88v5.79h-2.19v-5.79l-5.24-8.84h2.57l2.27,4.03c0.5,0.9,1.25,2.36,1.51,2.91c0.25-0.54,0.98-1.94,1.5-2.89
		l2.3-4.05h2.53L644.07,381.88z"/>
	<path d="M657.46,387.9c-3.78,0-6.18-3.12-6.18-7.54c0-4.43,2.4-7.55,6.18-7.55c2.38,0,3.97,0.96,4.98,2.74l-1.95,1.22
		c-0.74-1.19-1.52-1.76-3.03-1.76c-2.55,0-3.93,2.07-3.93,5.35c0,3.28,1.37,5.34,3.93,5.34c1.53,0,2.47-0.63,3.22-1.82l1.82,1.22
		C661.46,386.9,659.68,387.9,657.46,387.9"/>
	<path d="M671.71,387.9c-3.79,0-6.19-3.12-6.19-7.54c0-4.43,2.39-7.55,6.19-7.55c3.8,0,6.2,3.11,6.2,7.55
		C677.92,384.78,675.51,387.9,671.71,387.9 M671.71,375.01c-2.56,0-3.96,2.07-3.96,5.35c0,3.28,1.4,5.34,3.96,5.34
		c2.57,0,3.97-2.07,3.97-5.34C675.68,377.08,674.28,375.01,671.71,375.01"/>
	<path d="M689.97,381.69l2.99,5.98h-2.53l-2.9-5.79h-3.3v5.79h-2.15v-14.63h6.41c2.54,0,4.7,1.36,4.7,4.37
		C693.19,379.75,691.96,381.2,689.97,381.69 M688.49,375.11h-4.26v4.71h4.26c1.46,0,2.48-0.76,2.48-2.35
		C690.97,375.95,689.97,375.11,688.49,375.11"/>
	<path d="M703.59,382.21h-3.82v5.46h-2.15v-14.63h6.12c2.7,0,4.7,1.54,4.7,4.58C708.44,380.63,706.44,382.21,703.59,382.21
		 M703.7,375.11h-3.93v5.03h3.93c1.67,0,2.51-0.95,2.51-2.53C706.21,376.01,705.23,375.11,703.7,375.11"/>
	<rect x="133.45" y="207.38" class="st0" width="431.26" height="143.76"/>
	<rect x="564.69" y="207.38" width="143.75" height="143.76"/>
	<path class="st1" d="M609.92,303.24c2.71-2.25,3.17-5.04,3.17-7.54v-10.52h-14.76v14.28c0,2.05-1.66,3.71-3.7,3.71
		c-2.06,0-3.58-1.66-3.58-3.71v-40.46c0-2.06,1.52-3.71,3.58-3.71c2.04,0,3.7,1.65,3.7,3.71v14.35h14.75v-14.89
		c0-8.24-5.4-15.03-18.58-15.04c-13.51,0-18.62,6.81-18.62,15.05v42.25c0,8.18,6.49,14.35,14.83,14.35h4.57L609.92,303.24"/>
	<polygon class="st1" points="668.1,304.92 668.1,258.47 657.91,258.47 657.91,244.79 694.78,244.79 694.78,258.47 684.54,258.47 
		684.54,314.98 680.17,314.98 	"/>
	<path class="st1" d="M649.04,244.87h-20.57l-11.98,53.51l22.3-17.93l23.27,19.42L649.04,244.87z M634.83,277.04l3.97-20.24
		l3.97,20.24H634.83"/>
	<path class="st1" d="M697.65,248.53c0-2.41,1.97-4.36,4.41-4.36c2.44,0,4.39,1.95,4.39,4.36c0,2.43-1.95,4.38-4.39,4.38
		C699.61,252.91,697.65,250.96,697.65,248.53 M705.67,248.53c0-1.98-1.6-3.6-3.61-3.6c-2.01,0-3.63,1.61-3.63,3.6
		c0,2,1.62,3.62,3.63,3.62C704.06,252.15,705.67,250.53,705.67,248.53 M701.13,248.82v2.23h-0.81v-5.15h1.66
		c0.95,0,1.93,0.26,1.93,1.41c0,0.6-0.37,1.06-1.06,1.21v0.03c0.71,0.12,0.8,0.44,0.89,1c0.06,0.49,0.13,1.03,0.28,1.5h-1.01
		c-0.06-0.3-0.14-0.63-0.17-0.93c-0.06-0.45-0.06-0.84-0.3-1.09c-0.19-0.21-0.46-0.19-0.75-0.21H701.13z M701.98,248.01
		c0.75-0.01,0.94-0.33,0.94-0.73c0-0.38-0.19-0.58-0.84-0.58h-0.95v1.31H701.98"/>
	<polygon class="st0" points="676.06,315.12 600.32,315.1 638.73,284.65 	"/>
	<path d="M428.98,262.68h-8.01h-0.98l-0.33,0.9l-6.07,16.24l-5.73-16.22l-0.33-0.92h-0.99h-8.57h-2.08l0.78,1.93l11.5,27.92
		l0.03,0.06l0.03,0.03c0.43,0.84,0.37,2.09-0.17,3.04c-0.4,0.7-1.22,1.57-2.9,1.7c-1.36,0.08-2-0.08-2.12-0.13l-2.16-1.09l0.04,2.28
		l-0.01,5.94l-0.02,1.05l1.01,0.31c1.57,0.43,3.59,0.74,5.24,0.74c5.63,0,8.25-4.93,11.07-11.33c0.01-0.04,12.07-30.55,12.07-30.55
		l0.74-1.9H428.98z"/>
	<path d="M300.59,285.76h-23.56c0,4.75,3.07,9.13,9.9,9.13c4.14,0,8.3-1.52,11.28-3.15l0.23,9.12c-3.9,1.48-8.51,2.32-12.65,2.32
		c-14.04,0-20.26-8.51-20.26-20.71c0-10.75,6.3-20.49,17.73-20.49c3.6,0,17.34,0,17.34,20.86V285.76 M289.55,279.15
		c0-5.05-1.31-9.81-6.3-9.81c-6.22,0-6.22,7.66-6.22,9.81H289.55z"/>
	<path d="M305.47,270.94c0-3.84-0.08-6.28-0.3-8.36h11.03c0.08,2.38,0.24,4.84,0.32,7.2h0.15c2.46-4.29,4.14-7.81,11.12-7.81h1.77
		v11.2c-1.31-0.32-2.38-0.46-4.08-0.46c-7.06,0-7.9,6.14-7.9,11.98v17.87h-12.12V270.94z"/>
	<path d="M334.47,270.94c0-3.84-0.08-6.28-0.3-8.36h11.05c0.08,2.38,0.24,4.84,0.3,7.2h0.15c2.46-4.29,4.14-7.81,11.14-7.81h1.77
		v11.2c-1.32-0.32-2.38-0.46-4.08-0.46c-7.05,0-7.9,6.14-7.9,11.98v17.87h-12.13V270.94z"/>
	<path d="M395.36,285.76h-23.54c0,4.75,3.07,9.13,9.9,9.13c4.15,0,8.29-1.52,11.29-3.15l0.23,9.12c-3.92,1.48-8.51,2.32-12.66,2.32
		c-14.04,0-20.26-8.51-20.26-20.71c0-10.75,6.31-20.49,17.73-20.49c3.6,0,17.32,0,17.32,20.86V285.76 M384.32,279.15
		c0-5.05-1.3-9.81-6.28-9.81c-6.22,0-6.22,7.66-6.22,9.81H384.32z"/>
	<path d="M434.64,270.94c0-3.84-0.08-6.28-0.3-8.36h11.04c0.08,2.38,0.26,4.84,0.32,7.2h0.14c2.45-4.29,4.15-7.81,11.13-7.81h1.77
		v11.2c-1.3-0.32-2.38-0.46-4.07-0.46c-7.05,0-7.9,6.14-7.9,11.98v17.87h-12.14V270.94z"/>
	<path d="M478.88,261.97c12.27,0,18.79,8.52,18.79,20.49c0,12.12-6.52,20.71-18.79,20.71c-12.28,0-18.82-8.58-18.82-20.71
		C460.06,270.49,466.6,261.97,478.88,261.97 M478.88,294.89c4.23,0,6.21-4.6,6.21-12.42c0-7.83-1.98-12.21-6.21-12.21
		c-4.24,0-6.23,4.38-6.23,12.21C472.65,290.29,474.64,294.89,478.88,294.89"/>
	<path d="M526.31,272.64c-3.24-1.32-6.21-2.14-9.75-2.14c-3.15,0-4.52,1.52-4.52,2.91c0,2.46,1.76,3.31,8.37,5.75
		c4.14,1.56,8.36,4.15,8.36,11.66c0,8.9-6.67,12.36-14.74,12.36c-3.54,0-8.89-0.4-13.12-1.9l0.31-9.39
		c2.91,1.78,6.59,2.78,9.97,2.78c5.68,0,6.07-2,6.07-3.76c0-1.78-3.15-2.53-8.37-4.69c-4.23-1.76-8.37-5.14-8.37-12.28
		c0-4.29,3.06-11.96,14.97-11.96c4.98,0,9.14,0.92,11.12,1.6L526.31,272.64z"/>
	<polygon points="261.57,247.6 224.93,247.6 224.93,270.69 205.33,270.69 205.33,285.76 224.93,285.76 224.93,305.12 241.3,305.12 
		241.3,285.76 261.57,285.76 261.57,270.69 241.3,270.69 241.3,262.68 261.57,262.68 	"/>
</g>
</svg>
