<?xml version="1.0" encoding="UTF-8"?>
<svg id="Capa_1" xmlns="http://www.w3.org/2000/svg" version="1.1" viewBox="0 0 1590.83 225.63">
  <!-- Generator: Adobe Illustrator 29.7.1, SVG Export Plug-In . SVG Version: 2.1.1 Build 8)  -->
  <defs>
    <style>
      .st0 {
        fill: #fff;
      }
    </style>
  </defs>
  <path class="st0" d="M367.47,42.97c-.29-17.78-19.75-12.91-19.75-18.24,0-2.22.49-2.72,2.48-2.72,8.97,0,17.73.98,26.73.98,7.53,0,15.12-.98,22.63-.98,3.91,0,4.64.5,4.64,2.46,0,5.86-17.54.26-17.54,18.5v130.65c0,16.51,21.66,10.96,21.66,18.21,0,1.74-.73,2.46-4.85,2.46-5.6,0-16.05-.98-26.54-.98-14.82,0-19.96.98-23.41.98-4.36,0-5.04-1.17-5.04-3.69,0-7.04,19,.98,19-23.1V42.97Z"/>
  <path class="st0" d="M617.78,160.77c0,34.97,25.56,22.33,25.56,30.55,0,1.8-1,2.97-7.08,2.97-8.31,0-11.94-.98-26.25-.98-11.5,0-19.51.98-26.58.98-1.46,0-3.9-.73-3.9-2.97,0-6.5,18.98.98,18.98-25.95V48.85c0-29.23-19.95-14.42-19.95-23.14,0-1.97,1.21-3.69,3.17-3.69,2.19,0,10.76.97,24.82.97,12.13,0,16.06-.97,27.77-.97,30.88,0,65.21,10.73,65.21,46.94,0,9.76-7.33,46.76-59.11,46.76-2.49,0-16.58-1.21-16.58-5.55,0-1.82,1.22-2.27,2.44-2.27,1.94,0,7.09,1.53,15.81,1.53,24.8,0,39.39-11.95,39.39-33.87,0-29.41-22.63-44.98-50.54-44.98-7.85,0-13.16,0-13.16,7.32v122.88Z"/>
  <path class="st0" d="M885.91,164.35c0,14.38-1.97,20.22,18.45,20.22,56.21,0,64.5-25.11,67.67-25.11,1.71,0,1.94,2.48,1.94,2.92,0,8.77-6.29,17.3-12.16,23.63-7.81,8.71-13.13,8.29-23.87,8.29-18.5,0-36.97-1.5-55.43-.98-9.71.24-20,.98-29.75.98-2.13,0-3.57-.46-3.57-2.45.41-2.9,2.9-2.42,10.68-6.29,6.32-2.95,6.82-9.74,6.82-21.2V41.03c0-12.66-20.4-10.98-20.4-15.85,0-2.66,1.66-3.18,4.79-3.18,5.13,0,12.68.98,24.57.98,13.91,0,19.73-.98,23.42-.98,3.13,0,4.6.51,4.6,3.41,0,5.6-17.76-.49-17.76,20.74v118.19Z"/>
  <path class="st0" d="M1172.49,92.83c0,8.25-.53,8.25,9.23,8.25h26.27c25.27,0,18.76-19.44,24.57-19.44,1.97,0,2.67,2.67,2.67,4.61,0,8.53-.47,16.81-.47,24.61,0,6.29.47,12.66.47,19.16,0,2.22-.94,3.23-2.67,3.23-7.53,0,.7-21.42-19.73-21.42h-35.99c-5.07,0-4.34,4.1-4.34,7.82v44.69c0,14.38-1.97,20.22,18.47,20.22,56.2,0,64.5-25.11,67.66-25.11,1.67,0,1.91,2.48,1.91,2.91,0,8.78-6.33,17.31-12.17,23.63-7.79,8.73-13.12,8.29-23.83,8.29-18.47,0-36.98-1.51-55.48-.98-9.76.24-19.91.98-29.65.98-2.2,0-3.67-.48-3.67-2.46.49-2.9,2.95-2.42,10.68-6.29,6.35-2.95,6.82-9.73,6.82-21.2V53.46c0-10.96,0-22.65-13.14-24.6-1.95-.49-7.29-1-7.29-3.94,0-1.94,1.46-2.92,8.54-2.92,45.96,0,58.65.98,68.84.98,4.84,0,27.23-.98,34.82-.98,1.89,0,2.37,2.46,2.37,5.42,0,26.95-3.33,28.92-4.85,28.92-5.79,0-1.96-11.71-5.79-17.29-6.32-8.25-31.66-6.77-41.4-6.77-23.38,0-22.85-1.02-22.85,15.26v45.28Z"/>
  <path class="st0" d="M1565.1,16.74c-9.81,0-22.39,3.11-31.68,11.28-17.36,15.23-28.99,40.64-35.7,56.89-2.14,5.55-4.29,7.23-5.43,7.23-1.48,0-2.98-1.46-4.92-4.4l-25.9-41.84c-1.48-2.2-4.37-6.08-4.37-9.99,0-7.03,11.45-7.27,11.45-11.43,0-2.18-2.98-2.46-4.67-2.46-2.42,0-8.98.98-17.01.98-16.57,0-21.19-.98-27.75-.98-1.74,0-3.18,1.99-3.18,3.7,0,4.1,11.93,1.18,18.22,11.67l40.64,64.96c1.97,2.92,5.62,7.81,5.62,12.36v58.9c0,17.3-18.73,10.96-18.73,17.71,0,2.72,1.5,2.97,3.63,2.97s10.95-.98,21.91-.98c9.03,0,23.1.98,26.76.98,3.39,0,5.58-.25,5.58-2.46,0-7.49-19.92-.72-19.92-21.88v-58.22c4.91-14.66,15.11-38.57,30.24-57.52,11.86-14.88,25.9-26.47,44.69-32.89,1.34-.5,2.38-1.14,2.38-2.38,0-2.31-11.91-2.19-11.91-2.19"/>
  <path class="st0" d="M202.61,196.88c0-1.2-1.48-1.57-1.48-1.57-14.64-2.69-28.36-12.92-38.75-23.76-16.99-17.76-31.22-40.35-36.73-50.89-1.68-3.76.7-4.23.7-4.23v-.03c28.62-10.97,33.3-39.58,33.3-47.43,0-36.22-34.29-46.94-65.21-46.94-11.64,0-15.54.96-27.69.96-14.14,0-22.6-.96-24.86-.96-1.89,0-3.16,1.71-3.16,3.69,0,8.73,19.94-6.08,19.94,23.14v116.52c0,26.92-18.96,19.43-18.96,25.95,0,2.23,2.44,2.96,3.9,2.96,7.06,0,15.06-.97,26.46-.97,14.41,0,18.08.97,26.35.97,6.08,0,7.02-1.16,7.02-2.96,0-8.22-25.53,4.42-25.53-30.56V37.89c0-7.32,5.34-7.32,13.1-7.32,28.03,0,50.17,15.57,50.62,44.98.36,19.96-14.58,38.91-39.42,38.91-8.71,0-6.82-.53-8.81-.53-1.18,0-2.39.5-2.39,2.17,0,2.28,1.81,3.42,3.93,3.97,2.74,1.21,8.99,2.17,15.51,12.28,16.59,27.09,35.26,67.84,77.82,67.84,15.89,0,14.33-1.9,14.33-3.33"/>
</svg>