<?xml version="1.0" standalone="no"?>
<!DOCTYPE svg PUBLIC "-//W3C//DTD SVG 20010904//EN"
 "http://www.w3.org/TR/2001/REC-SVG-20010904/DTD/svg10.dtd">
<svg version="1.0" xmlns="http://www.w3.org/2000/svg"
 width="1861.000000pt" height="415.000000pt" viewBox="0 0 1861.000000 415.000000"
 preserveAspectRatio="xMidYMid meet">

<g transform="translate(0.000000,415.000000) scale(0.100000,-0.100000)"
fill="#000000" stroke="none">
<path d="M0 2075 l0 -2075 9305 0 9305 0 0 2075 0 2075 -9305 0 -9305 0 0
-2075z m1831 1531 c413 -173 757 -385 983 -604 196 -191 238 -384 114 -519
-68 -72 -70 -73 -308 -73 -115 0 -210 3 -210 8 1 4 30 28 65 54 193 143 193
324 -1 567 -114 142 -255 257 -564 463 -247 164 -258 180 -79 104z m1030 -256
c466 -83 919 -298 1205 -573 92 -89 124 -112 204 -151 52 -26 105 -55 117 -65
32 -27 63 -82 63 -113 0 -25 -5 -29 -40 -34 -22 -4 -40 -8 -40 -10 0 -2 48
-82 106 -179 l106 -175 66 -19 c37 -11 202 -54 366 -96 318 -82 354 -94 440
-149 93 -59 98 -78 107 -356 7 -226 9 -238 33 -287 51 -100 28 -215 -59 -291
-59 -52 -113 -64 -265 -60 -108 3 -115 4 -112 23 8 63 4 218 -7 265 -34 139
-113 255 -228 334 -273 186 -623 112 -766 -162 -59 -113 -81 -200 -81 -334
l-1 -118 -752 0 c-414 0 -753 3 -753 6 0 14 159 173 445 444 638 605 789 745
826 773 96 71 244 90 326 43 l43 -25 20 26 c57 72 24 195 -64 237 -19 9 -108
36 -197 61 l-164 45 -322 0 c-178 0 -323 2 -323 5 0 3 23 33 50 67 75 93 84
140 49 254 -40 128 -94 209 -222 331 -89 85 -187 152 -356 246 l-126 69 96 -6
c54 -4 148 -15 210 -26z m5462 -237 c2 -5 -22 -62 -54 -128 l-58 -120 -144 -5
c-169 -6 -187 -13 -207 -86 -11 -38 -11 -71 -2 -173 7 -69 12 -166 12 -216 1
-49 5 -123 10 -164 7 -51 6 -95 -1 -138 -15 -86 -7 -98 23 -33 15 30 44 93 66
140 22 47 56 121 77 165 20 44 54 116 75 160 38 80 87 185 141 303 16 35 50
107 75 160 26 53 50 107 55 120 l9 22 391 0 c309 0 390 -3 386 -12 -12 -32
-64 -148 -87 -193 l-25 -50 -221 -3 -222 -2 -27 -58 c-16 -31 -45 -92 -67
-136 -21 -43 -37 -81 -34 -83 2 -2 92 -4 200 -3 171 0 197 -2 203 -16 6 -16
-82 -213 -102 -226 -5 -4 -103 -8 -217 -8 l-208 0 -41 -87 c-113 -240 -128
-273 -121 -277 4 -2 115 -4 246 -4 l238 0 50 106 c47 101 74 159 167 355 22
45 53 111 69 147 64 140 216 462 240 510 l18 35 349 0 350 0 56 -27 c72 -36
99 -83 99 -173 0 -63 -4 -80 -41 -160 -77 -169 -124 -265 -146 -294 -32 -42
-105 -89 -161 -103 -39 -10 -67 -28 -43 -28 6 0 22 -17 36 -37 28 -42 34 -119
14 -170 -6 -15 -16 -39 -21 -53 -6 -14 -14 -33 -19 -42 -5 -10 -9 -22 -9 -28
0 -5 -11 -33 -23 -62 -31 -69 -63 -154 -74 -198 l-9 -35 -167 -3 c-161 -2
-167 -2 -167 18 0 22 65 189 117 300 19 41 37 98 40 127 5 47 3 54 -22 77 -26
24 -34 26 -130 26 l-102 0 -33 -72 c-18 -40 -46 -100 -61 -133 -15 -33 -38
-85 -52 -115 -13 -30 -39 -86 -56 -125 -17 -38 -35 -77 -40 -85 -7 -13 -84
-15 -585 -18 -462 -2 -578 0 -582 11 -2 7 9 41 26 75 16 34 30 65 30 69 0 3
-23 -16 -50 -41 -28 -26 -81 -62 -118 -79 l-67 -30 -267 -5 c-294 -5 -284 -7
-254 54 8 16 33 68 55 117 l40 87 146 0 c106 0 155 4 182 15 66 27 68 34 65
270 -2 116 -7 253 -12 305 -5 52 -10 128 -10 168 -1 221 94 342 305 391 48 11
492 14 498 4z m2217 -8 c0 -8 -6 -34 -14 -57 -8 -24 -31 -97 -51 -163 -20 -66
-45 -145 -55 -175 -10 -30 -37 -116 -60 -190 -23 -74 -45 -144 -50 -155 -4
-11 -22 -67 -40 -125 -18 -58 -46 -145 -62 -194 -25 -75 -30 -112 -14 -95 2 2
106 168 231 369 125 201 249 400 276 443 104 164 148 234 184 295 l38 62 178
0 c120 0 179 -4 179 -11 0 -6 -58 -94 -129 -197 -146 -213 -203 -297 -391
-572 -257 -378 -348 -510 -407 -591 l-35 -49 -229 0 c-256 0 -239 -6 -219 75
12 46 27 112 40 170 5 22 13 58 18 80 6 22 15 61 21 88 6 26 16 68 22 95 6 26
15 65 21 87 5 22 13 58 18 80 5 22 18 78 29 125 12 47 25 103 30 125 5 22 25
112 46 200 21 88 41 178 45 200 5 22 13 52 19 68 l11 27 175 0 c147 0 175 -2
175 -15z m1150 7 c0 -5 -17 -44 -39 -88 -40 -83 -91 -188 -173 -364 -27 -58
-71 -150 -98 -205 -27 -55 -71 -147 -98 -205 -58 -124 -133 -281 -209 -437
l-54 -113 -164 0 c-90 0 -166 4 -169 9 -4 5 20 65 53 133 125 262 161 339 161
343 0 1 31 67 69 146 98 205 149 313 188 399 19 41 52 111 73 155 21 44 54
115 74 158 l36 77 175 0 c96 0 175 -4 175 -8z m694 0 c4 -7 -69 -173 -103
-232 -6 -12 -38 -16 -152 -20 -153 -6 -175 -12 -197 -58 -15 -31 -16 -202 -2
-322 5 -47 11 -164 12 -260 2 -161 0 -180 -22 -240 -50 -139 -107 -197 -255
-260 -39 -17 -541 -28 -557 -12 -7 7 -5 19 6 39 8 15 33 69 55 118 l40 90 158
5 c248 8 249 9 239 288 -19 554 -19 562 -5 610 36 133 128 215 277 248 65 14
498 19 506 6z m1142 -13 c62 -23 99 -62 115 -122 14 -52 6 -140 -19 -198 -91
-210 -200 -425 -234 -460 -49 -50 -99 -86 -133 -93 -128 -29 -186 -35 -352
-35 l-183 -1 -55 -116 c-30 -64 -55 -118 -55 -119 0 -2 -27 -60 -60 -129 l-59
-126 -165 0 c-91 0 -167 4 -171 9 -3 5 20 62 50 125 30 64 55 118 55 120 0 2
25 57 56 122 31 66 66 142 79 169 13 28 53 112 89 189 36 76 66 139 66 141 0
3 62 137 120 260 39 83 99 213 116 253 l14 32 336 0 c311 -1 340 -3 390 -21z
m654 8 c0 -8 -14 -42 -31 -78 -17 -35 -55 -113 -84 -174 -29 -60 -73 -153 -98
-205 -24 -52 -70 -149 -102 -215 -91 -190 -148 -310 -216 -454 -35 -74 -80
-166 -99 -205 l-36 -71 -167 -3 c-140 -2 -167 0 -167 12 0 8 29 76 65 151 36
75 65 138 65 140 0 2 29 64 64 137 112 231 186 388 186 392 0 2 26 59 59 127
99 209 166 352 191 407 l24 52 173 0 c137 0 173 -3 173 -13z m380 0 c0 -8 -6
-27 -14 -43 -13 -27 -57 -120 -126 -269 -34 -75 -85 -183 -140 -300 -23 -49
-71 -153 -107 -230 -35 -77 -75 -162 -89 -189 -13 -28 -24 -58 -24 -68 0 -29
46 -40 157 -36 142 5 126 -14 288 331 88 188 137 293 202 432 36 77 92 195
124 263 l59 122 175 0 c112 0 175 -4 175 -10 0 -11 -29 -73 -156 -339 -41 -84
-74 -154 -74 -156 0 -1 -27 -61 -61 -131 -33 -71 -79 -167 -101 -214 -117
-247 -190 -389 -218 -423 -45 -53 -106 -92 -186 -119 -64 -21 -86 -22 -319
-23 -241 0 -252 1 -296 23 -59 29 -85 54 -104 99 -18 42 -20 150 -4 190 6 15
15 37 19 48 8 19 25 57 122 265 22 47 56 119 75 160 20 41 59 125 88 185 61
126 136 285 172 365 14 30 30 61 35 68 15 18 328 17 328 -1z m1449 1 c59 -13
118 -58 137 -104 8 -19 14 -60 14 -92 0 -66 -18 -116 -112 -310 -83 -174 -110
-198 -278 -258 -13 -5 -13 -7 2 -15 32 -18 58 -74 58 -128 0 -46 -51 -194
-115 -336 -8 -16 -24 -60 -35 -97 l-22 -68 -164 0 c-195 0 -186 -9 -128 125 7
17 22 55 34 85 12 30 35 84 52 120 17 36 33 88 36 117 4 47 2 54 -23 77 -26
24 -34 26 -132 26 -98 0 -104 -1 -112 -22 -5 -13 -22 -52 -39 -88 -16 -36 -40
-87 -52 -115 -12 -27 -35 -77 -50 -110 -15 -33 -44 -95 -63 -137 l-36 -78
-160 0 c-88 0 -162 4 -166 9 -7 12 18 67 160 366 24 50 60 126 80 170 21 44
56 118 78 165 21 47 55 119 74 160 19 41 56 120 83 175 26 55 64 136 84 180
20 44 49 106 64 138 l27 57 327 0 c213 0 344 -4 377 -12z m1097 1 c3 -6 2 -28
-4 -48 -6 -20 -15 -56 -21 -81 -28 -125 -53 -228 -61 -256 -6 -17 -10 -39 -10
-49 0 -10 -4 -32 -10 -49 -9 -31 -36 -144 -65 -271 -8 -38 -27 -119 -41 -180
-14 -60 -32 -139 -40 -175 -8 -36 -19 -81 -24 -100 -5 -19 -14 -60 -21 -90 -6
-30 -15 -66 -19 -80 l-7 -25 -176 -3 c-175 -2 -177 -2 -177 19 0 18 26 108 50
174 26 71 48 150 44 157 -3 4 -61 8 -130 8 l-124 0 -65 -102 c-37 -57 -88
-138 -115 -180 l-49 -78 -174 0 c-96 0 -177 3 -180 6 -4 4 8 28 27 53 18 25
71 102 116 171 46 69 87 127 90 130 4 3 83 118 176 255 92 138 203 300 245
360 43 61 128 185 191 278 l113 167 227 0 c155 0 229 -4 234 -11z m-13707
-754 c-3 -2 -63 -16 -135 -30 -420 -84 -935 -240 -1305 -395 -68 -28 -216 -96
-328 -151 -112 -54 -213 -99 -224 -99 -28 0 -279 122 -270 130 12 11 276 103
473 166 541 172 1041 287 1555 358 168 24 243 30 234 21z m461 -58 c0 -20 -30
-57 -45 -57 -20 0 -125 52 -125 62 0 4 38 8 85 8 62 0 85 -3 85 -13z m-795
-135 c-6 -5 -84 -35 -175 -67 -91 -32 -246 -90 -345 -130 -99 -40 -191 -76
-204 -80 -41 -13 -377 -192 -518 -277 -134 -80 -243 -156 -363 -254 -94 -76
-103 -78 -210 -50 -50 12 -92 25 -95 28 -19 19 382 266 641 396 129 64 354
160 419 177 28 7 64 20 80 30 32 18 727 232 760 234 11 1 15 -3 10 -7z m-336
-216 c-2 -3 -45 -26 -94 -52 -303 -158 -522 -313 -729 -514 -170 -165 -293
-326 -376 -490 l-30 -60 -143 6 c-78 4 -145 9 -149 13 -25 22 106 197 240 321
234 214 616 475 925 631 141 72 380 169 356 145z m14313 -348 c15 -12 14 -17
-8 -50 -22 -34 -29 -38 -67 -38 -24 0 -46 3 -50 6 -9 9 42 82 61 87 31 9 48 7
64 -5z m-9564 -161 c11 -10 22 -26 25 -36 5 -22 -21 -103 -37 -113 -6 -4 -35
-8 -65 -8 -58 0 -55 -5 -35 59 7 23 -22 35 -61 25 -23 -6 -35 -23 -72 -103
-24 -53 -51 -109 -59 -125 -8 -16 -14 -40 -14 -53 0 -20 5 -23 35 -23 29 0 39
6 61 40 25 38 30 40 76 40 34 0 50 -4 54 -15 8 -20 -21 -80 -57 -118 -28 -29
-35 -31 -119 -35 -128 -6 -157 1 -175 44 -17 42 -18 38 99 284 71 150 86 161
227 157 77 -2 101 -6 117 -20z m445 17 c3 -3 -4 -26 -16 -50 l-21 -44 -73 0
-73 0 -20 -40 c-11 -21 -20 -42 -20 -45 0 -3 29 -5 65 -5 76 0 82 -12 37 -80
-2 -3 -36 -7 -75 -10 l-72 -5 -22 -45 c-34 -68 -33 -70 46 -70 39 0 72 -4 76
-10 3 -5 -1 -25 -9 -45 l-15 -35 -140 0 c-78 0 -141 4 -141 9 0 9 24 63 80
186 40 88 71 156 100 220 35 78 29 75 165 75 67 0 124 -3 128 -6z m231 -126
c-1 -71 2 -128 6 -128 4 0 29 55 55 123 26 67 52 125 59 129 15 10 104 10 110
0 2 -4 -8 -32 -22 -62 -15 -30 -40 -84 -56 -120 -16 -36 -49 -108 -74 -160
-24 -52 -48 -105 -53 -117 -7 -20 -16 -23 -68 -23 -38 0 -61 4 -64 13 -2 6 -1
37 4 67 9 66 11 196 3 187 -3 -3 -29 -63 -58 -134 l-51 -128 -57 -3 c-35 -2
-58 1 -58 7 0 6 11 34 24 63 13 29 34 76 46 103 110 242 132 290 143 303 7 8
28 12 61 10 l51 -3 -1 -127z m676 112 c0 -12 -7 -34 -15 -50 -13 -25 -21 -29
-66 -32 -33 -2 -55 -8 -60 -18 -5 -8 -36 -73 -69 -145 -106 -232 -98 -220
-154 -223 -27 -2 -53 1 -58 6 -5 5 10 48 36 103 68 145 126 271 126 275 0 2
-24 4 -52 6 -61 3 -69 16 -38 66 l20 32 165 0 c160 0 165 -1 165 -20z m389 -4
c28 -26 27 -72 -3 -139 -24 -51 -69 -107 -87 -107 -5 0 -7 -17 -3 -37 4 -29
-2 -56 -24 -108 l-28 -70 -49 -3 c-26 -2 -51 0 -56 5 -4 4 3 35 17 67 13 33
24 70 24 83 0 20 -5 23 -40 23 -39 0 -41 -1 -66 -57 -61 -135 -50 -123 -111
-123 -53 0 -55 1 -49 24 3 13 25 66 50 117 24 52 55 121 70 154 15 33 42 91
59 128 l32 68 121 -3 c103 -2 125 -6 143 -22z m441 11 c0 -7 -14 -71 -30 -143
-30 -127 -44 -188 -61 -272 -5 -24 -11 -48 -14 -53 -4 -5 -33 -9 -67 -9 -58 0
-60 1 -53 23 4 12 9 39 12 60 5 37 5 37 -30 37 -33 0 -39 -5 -73 -60 l-37 -60
-59 0 c-43 0 -59 4 -56 13 4 18 299 461 312 469 6 4 44 8 84 8 53 0 72 -3 72
-13z m310 -1 c0 -8 -27 -72 -61 -142 -99 -210 -107 -229 -102 -236 2 -5 40 -8
84 -8 43 0 79 -4 79 -10 0 -15 -24 -64 -35 -72 -13 -10 -283 -10 -288 0 -3 4
8 34 24 67 48 101 115 247 144 315 40 91 49 100 107 100 34 0 48 -4 48 -14z
m758 3 c17 -6 35 -22 41 -37 14 -33 6 -59 -64 -207 -112 -241 -97 -229 -297
-233 -130 -3 -148 -1 -148 12 0 9 4 24 10 34 9 16 65 135 115 247 56 126 78
171 87 183 13 15 211 17 256 1z m458 -4 c4 -8 -1 -31 -10 -50 l-17 -35 -74 0
-75 0 -20 -40 c-11 -21 -20 -42 -20 -45 0 -3 29 -5 63 -5 35 0 66 -2 69 -6 3
-3 -3 -23 -13 -45 l-19 -39 -69 0 -69 0 -26 -46 c-40 -71 -37 -74 49 -74 41 0
75 -4 75 -9 0 -5 -7 -25 -15 -45 l-15 -36 -140 0 c-84 0 -140 4 -140 10 0 9
26 67 94 214 56 118 86 186 86 194 0 4 9 22 20 40 l20 32 120 0 c98 0 122 -3
126 -15z m601 3 c43 -16 53 -59 28 -123 l-17 -45 -53 0 c-61 0 -69 7 -55 46
13 33 -1 46 -44 38 -41 -7 -43 -9 -67 -62 -46 -102 -99 -226 -99 -234 0 -4 17
-8 37 -8 37 0 73 23 73 46 0 7 9 18 19 24 21 11 104 14 113 4 11 -10 -53 -123
-80 -141 -21 -13 -53 -18 -133 -21 -98 -4 -109 -2 -128 17 -33 33 -27 83 21
186 104 220 121 249 158 267 42 20 177 24 227 6z m460 -25 c-3 -21 -10 -59
-16 -85 -6 -27 -15 -67 -20 -90 -6 -24 -15 -63 -21 -88 -5 -25 -14 -65 -20
-90 -22 -108 -15 -100 -82 -100 l-61 0 7 33 c3 17 9 44 12 60 6 26 5 27 -33
27 -38 0 -42 -3 -74 -57 l-34 -58 -57 0 c-32 0 -58 4 -58 10 0 10 240 380 287
443 23 31 26 32 100 32 l75 0 -5 -37z m450 27 c27 -10 53 -44 53 -71 0 -6 -15
-43 -34 -83 -23 -51 -43 -79 -64 -91 -27 -16 -29 -22 -25 -56 5 -36 -24 -132
-50 -166 -9 -13 -98 -18 -109 -7 -4 3 7 38 23 77 16 39 27 77 25 84 -3 8 -22
13 -46 13 -35 0 -42 -4 -51 -27 -5 -15 -23 -55 -39 -90 l-29 -63 -50 0 c-27 0
-52 4 -55 9 -3 5 7 38 23 73 46 102 81 179 111 243 15 33 36 78 46 100 9 22
22 46 27 53 12 15 200 17 244 2z m450 -1 c15 -5 31 -16 35 -22 14 -22 8 -82
-12 -114 -17 -29 -25 -33 -64 -33 -52 0 -61 9 -44 45 15 33 3 43 -46 37 -33
-4 -37 -9 -95 -128 -34 -69 -64 -136 -67 -150 -6 -24 -5 -25 37 -22 37 3 47 8
66 37 29 42 29 49 1 53 -26 3 -26 26 -1 65 14 21 22 23 94 23 91 0 91 0 54
-86 -79 -181 -75 -179 -226 -179 -106 0 -120 2 -133 20 -29 38 -19 84 51 239
71 155 103 200 156 215 45 13 160 13 194 0z m469 -31 c-6 -47 -19 -110 -35
-173 -5 -22 -19 -83 -31 -135 -12 -52 -24 -105 -27 -117 -5 -21 -11 -23 -65
-23 l-61 0 7 33 c3 17 9 45 12 60 6 28 6 28 -32 25 -35 -3 -43 -9 -77 -60
l-38 -58 -54 0 c-29 0 -56 3 -58 8 -4 6 226 361 294 455 18 25 24 27 96 27
l76 0 -7 -42z m679 31 c41 -15 58 -55 41 -101 -16 -44 -71 -164 -121 -262 -55
-110 -69 -116 -247 -116 -110 0 -138 3 -138 14 0 15 27 76 156 354 19 39 34
75 34 79 0 3 7 15 17 25 14 15 32 18 121 18 58 0 120 -5 137 -11z m461 -2 c2
-7 -2 -30 -11 -50 l-15 -37 -75 0 -75 0 -20 -40 c-11 -21 -20 -42 -20 -45 0
-3 29 -5 63 -5 35 0 66 -3 69 -6 7 -7 -18 -58 -35 -72 -7 -6 -42 -12 -77 -14
-59 -3 -65 -5 -81 -33 -10 -16 -21 -42 -24 -57 l-7 -28 76 0 c84 0 88 -4 60
-58 l-15 -32 -140 0 c-147 0 -154 3 -129 48 14 25 43 88 116 252 94 209 73
190 215 190 89 0 121 -3 125 -13z m234 -2 c0 -8 -13 -44 -30 -80 -16 -36 -44
-95 -61 -132 -17 -38 -40 -86 -50 -107 -31 -64 -29 -66 61 -66 88 0 94 -5 65
-60 l-16 -30 -144 0 c-86 0 -145 4 -145 10 0 9 52 130 113 260 19 41 47 102
62 135 15 33 32 66 37 73 15 18 108 16 108 -3z m749 0 c52 -26 54 -69 9 -163
-62 -132 -77 -143 -201 -151 -87 -7 -77 2 -134 -116 -18 -39 -20 -40 -76 -43
-38 -2 -57 1 -57 9 0 6 13 39 29 73 16 33 37 79 46 101 10 22 40 86 67 143 26
57 48 106 48 110 0 4 7 18 16 30 14 20 23 22 120 22 73 0 114 -5 133 -15z
m457 1 c3 -7 -3 -29 -14 -47 -18 -33 -20 -34 -93 -37 l-75 -3 -17 -39 c-9 -22
-17 -42 -17 -45 0 -3 27 -5 59 -5 33 0 63 -5 66 -10 4 -6 -2 -25 -12 -43 -18
-30 -23 -32 -88 -37 -69 -5 -70 -5 -92 -45 -38 -67 -34 -74 50 -77 79 -3 85
-11 50 -65 -15 -22 -20 -23 -149 -23 -104 0 -134 3 -134 13 0 19 192 440 212
465 15 18 247 17 254 -2z m373 -1 c50 -25 54 -70 14 -151 -15 -31 -41 -67 -57
-82 -26 -23 -31 -35 -32 -74 -1 -26 -8 -62 -17 -80 -9 -18 -20 -46 -26 -61
-10 -24 -15 -27 -60 -27 -27 0 -52 4 -55 9 -3 4 6 38 21 74 31 78 27 97 -22
97 -33 0 -37 -3 -61 -57 -61 -135 -50 -123 -110 -123 -29 0 -55 3 -57 8 -3 4
14 46 37 93 22 47 50 106 60 130 43 99 109 235 118 247 15 18 210 16 247 -3z
m305 6 c6 -9 -6 -41 -63 -163 -109 -237 -107 -228 -57 -228 42 0 62 19 91 85
60 134 87 193 105 228 11 22 20 43 20 49 0 23 31 38 78 38 27 0 51 -3 55 -6 7
-8 -32 -98 -138 -319 -74 -154 -81 -159 -214 -163 -93 -3 -110 -1 -130 15 -34
28 -32 83 6 163 17 36 47 101 68 145 20 44 44 96 53 115 9 19 21 38 26 42 16
11 94 10 100 -1z m-12172 -52 c205 -43 348 -221 348 -433 0 -242 -164 -420
-409 -442 -127 -12 -251 37 -346 137 -169 178 -164 438 12 617 108 110 246
152 395 121z m12406 -513 c2 -8 -6 -19 -17 -25 -14 -8 -1494 -10 -5043 -9
l-5023 3 -3 22 -3 23 243 2 c134 2 2403 2 5043 1 4167 -3 4800 -5 4803 -17z"/>
<path d="M9462 2868 c-9 -12 -33 -62 -143 -295 -16 -34 -29 -64 -29 -67 0 -3
57 -6 128 -6 170 0 175 3 246 153 91 192 93 199 45 216 -45 16 -234 14 -247
-1z"/>
<path d="M13038 2869 c-10 -5 -18 -14 -18 -20 0 -5 -15 -42 -34 -82 -19 -40
-48 -103 -66 -142 -18 -38 -41 -88 -51 -109 -32 -66 -32 -66 97 -66 144 0 170
13 210 100 19 41 46 97 61 125 29 52 56 123 57 149 1 22 -5 33 -24 43 -30 15
-207 17 -232 2z"/>
<path d="M15532 2868 c-5 -7 -33 -62 -62 -123 -28 -60 -65 -138 -81 -171 -16
-34 -29 -65 -29 -68 0 -3 57 -6 128 -6 171 0 174 2 252 164 74 155 80 178 49
200 -30 21 -240 24 -257 4z"/>
<path d="M16705 2762 c-33 -53 -87 -140 -119 -192 -118 -190 -137 -222 -143
-236 -5 -12 9 -14 82 -12 l87 3 13 35 c7 19 27 82 45 140 18 58 36 114 40 125
18 48 70 214 70 224 0 26 -19 5 -75 -87z"/>
<path d="M9047 1363 c-14 -4 -67 -88 -67 -108 0 -3 21 -5 47 -3 45 3 48 5 71
51 13 27 22 50 20 52 -7 7 -54 13 -71 8z"/>
<path d="M9487 1265 c-39 -63 -45 -85 -23 -85 19 0 32 19 51 73 25 73 13 77
-28 12z"/>
<path d="M10499 1253 c-27 -60 -56 -120 -64 -135 -25 -45 -20 -58 23 -58 47 0
61 14 97 95 15 33 40 88 56 123 16 35 29 68 29 73 0 5 -20 9 -45 9 l-46 0 -50
-107z"/>
<path d="M12081 1266 c-47 -75 -50 -86 -18 -86 19 0 26 11 45 71 13 39 21 73
19 76 -3 2 -23 -25 -46 -61z"/>
<path d="M12533 1357 c-11 -17 -53 -100 -53 -104 0 -2 21 -3 47 -1 40 3 50 7
65 34 10 16 19 41 20 54 3 21 -2 24 -34 26 -21 2 -41 -2 -45 -9z"/>
<path d="M13480 1320 c0 -5 -16 -34 -35 -64 -41 -64 -43 -79 -13 -74 16 2 27
18 45 68 26 73 27 80 13 80 -5 0 -10 -4 -10 -10z"/>
<path d="M14095 1318 c-10 -24 -40 -88 -66 -143 -26 -55 -44 -104 -40 -108 5
-5 26 -7 47 -5 38 3 40 5 84 93 50 99 90 188 90 198 0 4 -22 7 -48 7 -47 0
-49 -1 -67 -42z"/>
<path d="M15580 1360 c-12 -7 -60 -105 -60 -121 0 -5 17 -9 38 -9 31 0 40 6
57 33 34 55 49 87 42 94 -10 9 -64 11 -77 3z"/>
<path d="M16402 1357 c-12 -15 -52 -94 -52 -102 0 -3 21 -5 47 -3 44 3 48 5
69 48 13 25 22 49 21 54 -4 13 -74 16 -85 3z"/>
<path d="M4545 1106 c-61 -27 -101 -102 -90 -168 14 -83 116 -150 196 -128 39
11 96 62 110 98 26 68 -11 166 -75 196 -41 19 -100 20 -141 2z"/>
</g>
</svg>
