<?xml version="1.0" encoding="utf-8"?>
<!-- Generator: Adobe Illustrator 26.0.2, SVG Export Plug-In . SVG Version: 6.00 Build 0)  -->
<svg version="1.1" id="Capa_1" xmlns="http://www.w3.org/2000/svg" xmlns:xlink="http://www.w3.org/1999/xlink" x="0px" y="0px"
	 viewBox="0 0 579.7 186" style="enable-background:new 0 0 579.7 186;" xml:space="preserve">
<style type="text/css">
	.st0{fill-rule:evenodd;clip-rule:evenodd;fill:#F9BF00;}
	.st1{fill:#FFFFFF;}
</style>
<g>
	<path d="M273.8,183.8c-3.6,0-5.5-2.3-5.5-6.4V169h2.2v8.4c0,2.8,1.1,4.2,3.3,4.2c2.3,0,3.4-1.4,3.4-4.1V169h2.2v8.5
		C279.5,181.6,277.5,183.8,273.8,183.8"/>
	<path d="M293.2,183.6l-5.8-9.2c-0.4-0.5-0.9-1.4-1.1-1.8c0,0.5,0,2.6,0,3.4v7.6h-2.1V169h2.2l5.5,8.9c0.4,0.6,1,1.7,1.2,2.1
		c0-0.5,0-2.6,0-3.5V169h2.1v14.6L293.2,183.6L293.2,183.6z"/>
	<path d="M309.8,183.6l-1.2-3.5h-5.9l-1.2,3.5h-2.3l5.3-14.6h2.3l5.3,14.6H309.8z M306.7,174.8c-0.4-1-1-2.7-1.1-3.4
		c-0.2,0.6-0.7,2.3-1.1,3.4l-1.2,3.3h4.5L306.7,174.8z"/>
	<polygon points="322.8,183.6 322.8,169 332.2,169 332.2,171.1 325,171.1 325,174.7 329.2,174.7 329.2,176.9 325,176.9 325,181.5 
		332.5,181.5 332.5,183.6 	"/>
	<path d="M347.6,183.6v-7.7c0-0.9,0-2.1,0-2.6c-0.2,0.4-0.6,1.5-0.9,2.3l-3.5,8.2l-3.5-8.2c-0.4-0.8-0.8-1.9-0.9-2.3
		c0,0.4,0,1.7,0,2.6v7.7h-2.1V169h2.3l3.3,7.8c0.4,0.8,0.8,1.9,1,2.5c0.2-0.6,0.6-1.7,1-2.5l3.2-7.8h2.3v14.6H347.6z"/>
	<path d="M360.6,178.2h-3.8v5.5h-2.1V169h6.1c2.7,0,4.7,1.5,4.7,4.6C365.4,176.6,363.4,178.2,360.6,178.2 M360.7,171.1h-3.9v5h3.9
		c1.7,0,2.5-1,2.5-2.5C363.2,172,362.2,171.1,360.7,171.1"/>
	<path d="M377.2,177.6l3,6h-2.5l-2.9-5.8h-3.3v5.8h-2.2V169h6.4c2.5,0,4.7,1.4,4.7,4.4C380.4,175.7,379.1,177.1,377.2,177.6
		 M375.7,171.1h-4.3v4.7h4.3c1.5,0,2.5-0.8,2.5-2.4C378.2,171.9,377.2,171.1,375.7,171.1"/>
	<polygon points="384.8,183.6 384.8,169 394.2,169 394.2,171.1 387,171.1 387,174.7 391.2,174.7 391.2,176.9 387,176.9 387,181.5 
		394.6,181.5 394.6,183.6 	"/>
	<path d="M402.8,183.8c-2.1,0-4-0.9-5.2-2.4l1.6-1.5c1,1.1,2.4,1.7,3.8,1.7c2,0,3-0.7,3-2.1c0-1.1-0.9-1.7-3.3-2.4
		c-3.1-0.9-4.6-1.7-4.6-4.3c0-2.5,2.1-4.1,4.8-4.1c2,0,3.5,0.7,4.8,2l-1.5,1.6c-0.9-0.9-2-1.4-3.4-1.4c-1.7,0-2.5,0.8-2.5,1.8
		c0,1,0.7,1.5,3.2,2.3c2.9,0.9,4.7,1.8,4.7,4.4C408.2,182,406.5,183.8,402.8,183.8"/>
	<path d="M421.6,183.6l-1.2-3.5h-5.8l-1.2,3.5h-2.3l5.3-14.6h2.3l5.3,14.6H421.6z M418.6,174.8c-0.4-1-0.9-2.7-1.1-3.4
		c-0.2,0.6-0.7,2.3-1.1,3.4l-1.2,3.3h4.5L418.6,174.8z"/>
	<polygon points="436.8,171.1 436.8,175 441,175 441,177.1 436.8,177.1 436.8,183.6 434.6,183.6 434.6,169 444,169 444,171.1 	"/>
	<polygon points="447.8,183.6 447.8,169 457.2,169 457.2,171.1 450,171.1 450,174.7 454.2,174.7 454.2,176.9 450,176.9 450,181.5 
		457.5,181.5 457.5,183.6 	"/>
	<path d="M469.6,177.6l3,6h-2.5l-2.9-5.8h-3.3v5.8h-2.2V169h6.4c2.5,0,4.7,1.4,4.7,4.4C472.8,175.7,471.6,177.1,469.6,177.6
		 M468.1,171.1h-4.3v4.7h4.3c1.5,0,2.5-0.8,2.5-2.4C470.6,171.9,469.6,171.1,468.1,171.1"/>
	<path d="M485.1,177.6l3,6h-2.5l-2.9-5.8h-3.3v5.8h-2.2V169h6.4c2.5,0,4.7,1.4,4.7,4.4C488.4,175.7,487.1,177.1,485.1,177.6
		 M483.7,171.1h-4.3v4.7h4.3c1.5,0,2.5-0.8,2.5-2.4C486.2,171.9,485.1,171.1,483.7,171.1"/>
	<polygon points="492.8,183.6 492.8,169 502.2,169 502.2,171.1 495,171.1 495,174.7 499.2,174.7 499.2,176.9 495,176.9 495,181.5 
		502.5,181.5 502.5,183.6 	"/>
	<path d="M512.7,177.8v5.8h-2.2v-5.8l-5.2-8.8h2.6l2.3,4c0.5,0.9,1.2,2.4,1.5,2.9c0.2-0.5,1-1.9,1.5-2.9l2.3-4h2.5L512.7,177.8z"/>
	<path d="M526,183.8c-3.8,0-6.2-3.1-6.2-7.5c0-4.4,2.4-7.5,6.2-7.5c2.4,0,4,1,5,2.7l-2,1.2c-0.7-1.2-1.5-1.8-3-1.8
		c-2.5,0-3.9,2.1-3.9,5.4s1.4,5.3,3.9,5.3c1.5,0,2.5-0.6,3.2-1.8l1.8,1.2C530,182.8,528.3,183.8,526,183.8"/>
	<path d="M540.3,183.8c-3.8,0-6.2-3.1-6.2-7.5c0-4.4,2.4-7.5,6.2-7.5s6.2,3.1,6.2,7.5C546.5,180.7,544.1,183.8,540.3,183.8
		 M540.3,171c-2.6,0-4,2.1-4,5.4s1.4,5.3,4,5.3c2.6,0,4-2.1,4-5.3C544.3,173,542.9,171,540.3,171"/>
	<path d="M558.6,177.6l3,6H559l-2.9-5.8h-3.3v5.8h-2.2V169h6.4c2.5,0,4.7,1.4,4.7,4.4C561.8,175.7,560.5,177.1,558.6,177.6
		 M557.1,171.1h-4.3v4.7h4.3c1.5,0,2.5-0.8,2.5-2.4C559.6,171.9,558.6,171.1,557.1,171.1"/>
	<path d="M572.2,178.2h-3.8v5.5h-2.2V169h6.1c2.7,0,4.7,1.5,4.7,4.6C577,176.6,575,178.2,572.2,178.2 M572.3,171.1h-3.9v5h3.9
		c1.7,0,2.5-1,2.5-2.5C574.8,172,573.8,171.1,572.3,171.1"/>
	<rect x="2" y="3.3" class="st0" width="431.3" height="143.8"/>
	<rect x="433.3" y="3.3" width="143.8" height="143.8"/>
	<path class="st1" d="M478.5,99.2c2.7-2.2,3.2-5,3.2-7.5V81.1h-14.8v14.3c0,2-1.7,3.7-3.7,3.7c-2.1,0-3.6-1.7-3.6-3.7V54.9
		c0-2.1,1.5-3.7,3.6-3.7c2,0,3.7,1.7,3.7,3.7v14.4h14.8V54.4c0-8.2-5.4-15-18.6-15c-13.5,0-18.6,6.8-18.6,15.1v42.2
		c0,8.2,6.5,14.4,14.8,14.4h4.6L478.5,99.2"/>
	<polygon class="st1" points="536.7,100.9 536.7,54.4 526.5,54.4 526.5,40.7 563.4,40.7 563.4,54.4 553.1,54.4 553.1,110.9 
		548.8,110.9 	"/>
	<path class="st1" d="M517.6,40.8h-20.6l-12,53.5l22.3-17.9l23.3,19.4L517.6,40.8z M503.4,73l4-20.2l4,20.2H503.4"/>
	<path class="st1" d="M566.2,44.5c0-2.4,2-4.4,4.4-4.4s4.4,1.9,4.4,4.4c0,2.4-2,4.4-4.4,4.4C568.2,48.9,566.2,46.9,566.2,44.5
		 M574.3,44.5c0-2-1.6-3.6-3.6-3.6s-3.6,1.6-3.6,3.6c0,2,1.6,3.6,3.6,3.6C572.6,48.1,574.3,46.5,574.3,44.5 M569.7,44.8V47h-0.8
		v-5.1h1.7c1,0,1.9,0.3,1.9,1.4c0,0.6-0.4,1.1-1.1,1.2v0c0.7,0.1,0.8,0.4,0.9,1c0.1,0.5,0.1,1,0.3,1.5h-1c-0.1-0.3-0.1-0.6-0.2-0.9
		c-0.1-0.4-0.1-0.8-0.3-1.1c-0.2-0.2-0.5-0.2-0.8-0.2L569.7,44.8L569.7,44.8z M570.6,44c0.8,0,0.9-0.3,0.9-0.7
		c0-0.4-0.2-0.6-0.8-0.6h-1V44H570.6"/>
	<polygon class="st0" points="544.6,111.1 468.9,111 507.3,80.6 	"/>
	<path d="M297.6,58.6h-8h-1l-0.3,0.9l-6.1,16.2l-5.7-16.2l-0.3-0.9h-1h-8.6h-2.1l0.8,1.9l11.5,27.9l0,0.1l0,0c0.4,0.8,0.4,2.1-0.2,3
		c-0.4,0.7-1.2,1.6-2.9,1.7c-1.4,0.1-2-0.1-2.1-0.1l-2.2-1.1l0,2.3l0,5.9l0,1l1,0.3c1.6,0.4,3.6,0.7,5.2,0.7
		c5.6,0,8.2-4.9,11.1-11.3c0,0,12.1-30.5,12.1-30.5l0.7-1.9H297.6z"/>
	<path d="M169.2,81.7h-23.6c0,4.8,3.1,9.1,9.9,9.1c4.1,0,8.3-1.5,11.3-3.1l0.2,9.1c-3.9,1.5-8.5,2.3-12.6,2.3
		c-14,0-20.3-8.5-20.3-20.7c0-10.8,6.3-20.5,17.7-20.5c3.6,0,17.3,0,17.3,20.9L169.2,81.7 M158.1,75.1c0-5-1.3-9.8-6.3-9.8
		c-6.2,0-6.2,7.7-6.2,9.8H158.1z"/>
	<path d="M174.1,66.9c0-3.8-0.1-6.3-0.3-8.4h11c0.1,2.4,0.2,4.8,0.3,7.2h0.1c2.5-4.3,4.1-7.8,11.1-7.8h1.8v11.2
		c-1.3-0.3-2.4-0.5-4.1-0.5c-7.1,0-7.9,6.1-7.9,12v17.9H174L174.1,66.9L174.1,66.9z"/>
	<path d="M203.1,66.9c0-3.8-0.1-6.3-0.3-8.4h11c0.1,2.4,0.2,4.8,0.3,7.2h0.1c2.5-4.3,4.1-7.8,11.1-7.8h1.8v11.2
		c-1.3-0.3-2.4-0.5-4.1-0.5c-7,0-7.9,6.1-7.9,12v17.9h-12.1V66.9z"/>
	<path d="M263.9,81.7h-23.5c0,4.8,3.1,9.1,9.9,9.1c4.1,0,8.3-1.5,11.3-3.1l0.2,9.1c-3.9,1.5-8.5,2.3-12.7,2.3
		c-14,0-20.3-8.5-20.3-20.7c0-10.8,6.3-20.5,17.7-20.5c3.6,0,17.3,0,17.3,20.9L263.9,81.7 M252.9,75.1c0-5-1.3-9.8-6.3-9.8
		c-6.2,0-6.2,7.7-6.2,9.8H252.9z"/>
	<path d="M303.2,66.9c0-3.8-0.1-6.3-0.3-8.4h11c0.1,2.4,0.3,4.8,0.3,7.2h0.1c2.5-4.3,4.1-7.8,11.1-7.8h1.8v11.2
		c-1.3-0.3-2.4-0.5-4.1-0.5c-7,0-7.9,6.1-7.9,12v17.9h-12.1L303.2,66.9L303.2,66.9z"/>
	<path d="M347.5,57.9c12.3,0,18.8,8.5,18.8,20.5c0,12.1-6.5,20.7-18.8,20.7c-12.3,0-18.8-8.6-18.8-20.7
		C328.6,66.4,335.2,57.9,347.5,57.9 M347.5,90.8c4.2,0,6.2-4.6,6.2-12.4c0-7.8-2-12.2-6.2-12.2c-4.2,0-6.2,4.4-6.2,12.2
		C341.2,86.2,343.2,90.8,347.5,90.8"/>
	<path d="M394.9,68.6c-3.2-1.3-6.2-2.1-9.8-2.1c-3.2,0-4.5,1.5-4.5,2.9c0,2.5,1.8,3.3,8.4,5.8c4.1,1.6,8.4,4.1,8.4,11.7
		c0,8.9-6.7,12.4-14.7,12.4c-3.5,0-8.9-0.4-13.1-1.9l0.3-9.4c2.9,1.8,6.6,2.8,10,2.8c5.7,0,6.1-2,6.1-3.8c0-1.8-3.2-2.5-8.4-4.7
		c-4.2-1.8-8.4-5.1-8.4-12.3c0-4.3,3.1-12,15-12c5,0,9.1,0.9,11.1,1.6L394.9,68.6z"/>
	<polygon points="130.2,43.5 93.5,43.5 93.5,66.6 73.9,66.6 73.9,81.7 93.5,81.7 93.5,101.1 109.9,101.1 109.9,81.7 130.2,81.7 
		130.2,66.6 109.9,66.6 109.9,58.6 130.2,58.6 	"/>
</g>
</svg>
