<?xml version="1.0" encoding="UTF-8" standalone="no"?>
<!-- Created with Inkscape (http://www.inkscape.org/) -->

<svg
   version="1.1"
   id="svg2"
   width="960.99133"
   height="394"
   viewBox="0 0 960.99133 394"
   sodipodi:docname="logotipo-centenario-oficinas-negro.png"
   xmlns:inkscape="http://www.inkscape.org/namespaces/inkscape"
   xmlns:sodipodi="http://sodipodi.sourceforge.net/DTD/sodipodi-0.dtd"
   xmlns="http://www.w3.org/2000/svg"
   xmlns:svg="http://www.w3.org/2000/svg">
  <defs
     id="defs6" />
  <sodipodi:namedview
     id="namedview4"
     pagecolor="#ffffff"
     bordercolor="#000000"
     borderopacity="0.25"
     inkscape:showpageshadow="2"
     inkscape:pageopacity="0.0"
     inkscape:pagecheckerboard="0"
     inkscape:deskcolor="#d1d1d1"
     showgrid="false"
     showguides="false" />
  <g
     inkscape:groupmode="layer"
     inkscape:label="Image"
     id="g8"
     transform="translate(-137.85986,-88.090912)">
    <g
       id="g314"
       transform="translate(243.96694,-255.86777)"
       style="fill:#ffffff">
      <path
         style="fill:#ffffff"
         d="m 398.05684,736.68972 c -1.8301,-0.58563 -5.5021,-3.01998 -8.16,-5.40967 -13.43064,-12.0753 -9.32556,-33.94493 7.55738,-40.26165 6.46416,-2.41855 11.33488,-2.59462 17.81623,-0.64402 21.32745,6.41862 23.3555,35.81031 3.12112,45.23299 -5.48289,2.55325 -14.27564,3.02126 -20.33473,1.08235 z m 20.56682,-6.93986 c 5.73016,-3.79205 8.61978,-10.14919 8.06974,-17.75339 -0.55733,-7.70503 -3.63579,-12.26606 -10.59718,-15.70069 -15.27251,-7.53522 -31.79339,5.18173 -28.10619,21.63475 1.24598,5.55979 4.85418,10.41239 9.69793,13.04254 5.4625,2.96613 15.49054,2.38022 20.9357,-1.22321 z m 25.26063,-7.72782 V 706.0854 l -3.25,-0.31336 c -2.47888,-0.23901 -3.25,-0.7879 -3.25,-2.31336 0,-1.52546 0.77112,-2.07435 3.25,-2.31336 2.98526,-0.28783 3.25,-0.59734 3.25,-3.79966 0,-8.24397 6.24078,-12.82984 14.21037,-10.4421 2.87811,0.8623 3.79552,1.59739 3.37177,2.70166 -0.32018,0.83437 -0.58214,1.64995 -0.58214,1.81241 0,0.16246 -1.94352,0.0763 -4.31893,-0.19143 -5.2918,-0.59646 -7.68107,1.34817 -7.68107,6.25165 0,3.36796 0.013,3.37706 5.25,3.67857 4.5737,0.26332 5.29116,0.5921 5.56955,2.55226 0.29857,2.10226 -0.0462,2.25 -5.25,2.25 h -5.56955 v 16 16 h -2.5 -2.5 z m 27.44347,14.64992 c -0.27157,-0.7077 -0.36995,-8.9202 -0.21862,-18.25 l 0.27515,-16.96328 h 2.5 2.5 l 0.27256,18.25 0.27256,18.25 h -2.55395 c -1.40467,0 -2.77613,-0.57902 -3.0477,-1.28672 z m 24.9576,-0.61871 c -10.80462,-4.90687 -13.47771,-20.56052 -5.00141,-29.28829 3.39112,-3.49172 9.12109,-5.82312 14.21636,-5.78432 3.53064,0.0269 10.36165,3.03001 12.34623,5.42777 1.29824,1.56853 1.25389,1.91906 -0.39539,3.12504 -1.62405,1.18753 -2.22625,1.04817 -4.78898,-1.10821 -5.4808,-4.6118 -15.4012,-2.75997 -19.14234,3.57327 -2.05245,3.47453 -2.11307,11.13606 -0.11861,14.9929 3.20197,6.19194 13.77816,8.11418 19.26095,3.50071 2.57874,-2.16986 3.15773,-2.30101 4.81345,-1.09031 1.83773,1.34378 1.83527,1.42879 -0.10461,3.60457 -4.49772,5.0447 -13.74443,6.38084 -21.08565,3.04687 z m 32.06931,0.68885 c -0.28637,-0.74627 -0.39686,-8.99034 -0.24553,-18.32014 l 0.27515,-16.96328 h 2.5 2.5 v 18 c 0,17.91591 -0.0105,18.0015 -2.25447,18.32014 -1.23996,0.17607 -2.48878,-0.29045 -2.77515,-1.03672 z m 18.52962,-17.35297 v -18.56955 l 2.24357,0.31955 c 1.58577,0.22586 2.39205,1.17167 2.75,3.22589 0.4768,2.73627 0.5942,2.80035 2.00643,1.09509 5.71373,-6.89928 20.53799,-5.2095 24.32586,2.77284 1.30076,2.74114 1.67414,6.44942 1.67414,16.62686 v 13.09887 h -2.42252 -2.42252 l -0.32748,-13.589 c -0.32477,-13.47636 -0.35074,-13.60899 -3.13324,-16 -3.33182,-2.86304 -9.22329,-3.22302 -13.82268,-0.84458 -4.56076,2.35846 -5.87156,6.68976 -5.87156,19.40146 v 11.03212 h -2.5 -2.5 z m 49.49961,17.23905 c -3.9829,-1.80939 -5.47788,-3.76073 -6.1757,-8.0609 -1.22656,-7.55842 4.75488,-11.6086 17.14397,-11.6086 h 7.53212 v -3.04545 c 0,-1.90012 -0.92311,-3.96857 -2.45455,-5.5 -3.15638,-3.15639 -10.36691,-3.37007 -15.78211,-0.46769 -3.61602,1.93807 -3.73177,1.94065 -4.71418,0.105 -1.2457,-2.32761 -0.0179,-3.48596 5.9129,-5.57847 5.67122,-2.00093 10.63508,-1.87953 15.61414,0.38187 5.90929,2.68389 6.9238,5.84952 6.9238,21.60474 0,12.72013 -0.0484,13.00688 -2.25,13.31955 -1.83825,0.26107 -2.25,-0.15616 -2.25,-2.27994 v -2.59948 l -2.96903,2.19509 c -3.65906,2.70526 -12.20735,3.49863 -16.53136,1.53428 z m 13.52041,-4.17985 c 3.50808,-1.8141 4.97998,-4.3039 4.97998,-8.42391 v -3.06574 h -7.44424 c -6.41256,0 -7.83025,0.33204 -10.22964,2.39591 -2.4459,2.10387 -2.66398,2.74121 -1.78916,5.22875 1.76319,5.01361 8.68818,6.86163 14.48306,3.86499 z m 24.0469,4.11758 c -4.01118,-1.44951 -6.0589,-4.01525 -4.47149,-5.60266 0.73396,-0.73396 2.14869,-0.5916 4.6954,0.47248 5.26283,2.19895 14.94453,2.02535 17.05418,-0.30579 3.91927,-4.33074 1.06284,-7.26668 -9.30046,-9.55931 -9.04319,-2.00059 -12.04455,-4.40561 -12.04455,-9.65141 0,-8.47787 9.83052,-13.13631 21,-9.95138 5.55307,1.58344 6.39195,2.38996 5.06492,4.86953 -1.0729,2.00474 -1.31672,2.04246 -4.05358,0.62717 -3.80584,-1.96807 -11.94638,-1.94009 -14.78883,0.0508 -1.25455,0.87872 -2.22251,2.60965 -2.22251,3.97432 0,2.99008 3.09882,4.67225 11.98115,6.50389 7.73806,1.59567 11.01885,4.33406 11.01885,9.19713 0,6.78557 -5.75391,10.82819 -15.21788,10.69188 -2.90517,-0.0418 -6.82701,-0.63435 -8.7152,-1.31669 z M 471.03674,692.24354 c -1.37912,-2.57691 0.3777,-5.28486 3.42862,-5.28486 1.37511,0 2.76162,0.72946 3.10946,1.63592 1.48424,3.86786 -4.60279,7.26506 -6.53808,3.64894 z m 56.81334,-0.34878 c -0.8199,-1.53199 -0.79741,-2.43404 0.0873,-3.5 1.79701,-2.16527 5.69798,-1.79588 6.46218,0.61191 1.36881,4.31273 -4.42068,6.86571 -6.54944,2.88809 z M -70.427956,662.45699 c -16.84625,-4.63091 -29.715314,-17.64818 -34.234994,-34.62927 -2.97914,-11.19306 -1.24326,-25.97131 4.23236,-36.03183 3.389434,-6.2275 13.453794,-15.86043 20.077674,-19.21701 14.92934,-7.56527 34.44294,-7.56936 49.50401,-0.0104 7.04699,3.5368 13.99207,9.27319 13.32662,11.00732 -0.29165,0.76003 -3.32943,4.7361 -6.75063,8.83571 l -6.22036,7.45384 -4.38554,-4.04245 c -13.07172,-12.04909 -31.83357,-10.87568 -40.9733,2.56256 -4.27209,6.2813 -5.62329,11.64055 -4.90335,19.44809 1.41926,15.39148 14.57725,26.58496 29.0015,24.67151 5.36184,-0.71127 13.46786,-4.41651 18.04606,-8.2488 l 2.90781,-2.43405 7.4012,7.31823 7.40119,7.31822 -4.29782,3.8478 c -10.26871,9.19349 -22.03277,13.64085 -35.82018,13.54169 -5.225,-0.0376 -11.66551,-0.66361 -14.31225,-1.39118 z m 87.05817,0.41602 c -18.9688599,-4.47062 -30.41573,-22.7192 -26.94544,-42.95636 3.3753901,-19.68378 17.2531401,-30.95797 38.10711,-30.95797 14.10657,0 24.26996,4.7593 30.59184,14.3255 4.10381,6.20986 6.50057,14.83175 6.50057,23.3846 v 6.2899 h -25.5 c -19.92497,0 -25.5,0.27719 -25.5,1.26787 0,2.49807 4.94223,8.47684 8.34006,10.08921 6.59547,3.12975 18.12588,1.15117 23.93658,-4.10744 1.70713,-1.54492 2.17158,-1.28142 7.98097,4.52797 l 6.16835,6.16835 -2.77257,2.89393 c -3.26965,3.41279 -11.59613,7.67734 -17.76805,9.10022 -5.27001,1.21495 -17.93486,1.20084 -23.13942,-0.0258 z m 24.86453,-46.11206 c -1.45025,-7.25128 -6.15232,-11.03304 -13.71799,-11.03304 -6.02356,0 -9.31966,2.04271 -12.62601,7.82479 -3.70815,6.48473 -3.86008,6.40598 12.35855,6.40598 h 14.625 z m 143.889546,45.29788 c -4.93753,-2.29092 -9.861,-7.4888 -11.36589,-11.99937 -0.68471,-2.05226 -1.13411,-10.8483 -1.13411,-22.19774 V 609.0632 l -5.25,-0.30226 -5.25,-0.30226 -0.29206,-7.75 -0.29207,-7.75 h 5.54207 5.54206 v -10.5 -10.5 h 11.5 11.5 v 10.5 10.5 h 10.04206 10.04207 l -0.29207,7.75 -0.29206,7.75 -9.75,0.28621 -9.75,0.28621 v 14.31457 c 0,7.87301 0.49497,15.73443 1.09993,17.46981 1.33735,3.83635 4.61491,4.90259 10.33965,3.36365 2.23323,-0.60034 4.35241,-0.78304 4.70929,-0.40599 0.82305,0.86957 4.9199,15.4501 4.46812,15.90188 -0.18503,0.18503 -2.8633,1.22455 -5.95172,2.31004 -7.46946,2.6253 -19.58948,2.66083 -25.16527,0.0738 z m 61,-0.15889 c -16.34345,-5.30184 -25.33124,-19.14107 -24.25663,-37.3499 0.90582,-15.34894 7.97491,-26.52451 20.48671,-32.38756 5.26595,-2.46764 6.81806,-2.7038 17.76992,-2.7038 10.84755,0 12.5346,0.25073 17.56658,2.6107 6.21662,2.91557 12.1716,8.5016 15.03963,14.10782 2.57113,5.02587 4.86099,15.1312 4.87901,21.53148 l 0.0148,5.25 h -25.96862 c -28.99354,0 -27.6357,-0.41837 -22.25168,6.85611 5.33943,7.21421 16.78442,8.20033 26.32693,2.26838 l 5.24031,-3.25755 6.0219,6.0219 6.02191,6.02191 -1.94416,2.14827 c -8.49327,9.38495 -30.18365,13.67136 -44.94659,8.88224 z M 274.263,617.20868 c -1.88782,-7.87319 -6.06988,-11.44627 -13.52881,-11.5588 -3.40746,-0.0514 -5.68179,0.53462 -7.60551,1.95968 -3.4437,2.55105 -7.24439,8.05819 -7.24439,10.497 0,1.71778 1.05309,1.85212 14.51905,1.85212 h 14.51905 z m 135.12129,44.87116 c -8.01653,-3.67741 -12.41255,-10.0652 -13.24505,-19.24617 -0.4435,-4.89093 -0.11686,-6.62994 2.0826,-11.08785 4.84996,-9.82997 12.32465,-12.78714 32.32138,-12.78714 8.50416,0 13.34107,-0.3742 13.34107,-1.03212 0,-2.41764 -2.96663,-7.8311 -5.11687,-9.33719 -3.46458,-2.42668 -15.41043,-2.18588 -22.65811,0.45675 -3.14876,1.14809 -6.43743,2.30593 -7.30816,2.57299 -1.18146,0.36237 -2.42335,-1.44148 -4.89464,-7.10946 -1.82132,-4.17727 -3.13391,-7.73098 -2.91686,-7.89714 1.39388,-1.06705 11.43404,-4.75777 16.89464,-6.2104 7.64568,-2.03389 23.54159,-2.35939 29.65734,-0.60728 7.05006,2.01978 13.4557,7.06045 16.55592,13.02804 l 2.78674,5.36419 v 27.38581 27.38581 h -11.5 -11.5 v -3.55089 -3.55089 l -3.31867,2.53127 c -5.06159,3.86067 -11.0968,5.57292 -19.55706,5.54855 -5.23673,-0.0151 -8.87687,-0.59657 -11.62427,-1.85688 z m 27.51923,-16.13097 c 4.37557,-2.23225 6.98077,-6.31521 6.98077,-10.94053 v -3.04966 h -9.56574 c -12.76955,0 -15.39068,1.39011 -15.41895,8.17742 -0.0302,7.25908 9.27806,10.26437 18.00392,5.81277 z m 166.98077,16.1818 c -7.8154,-2.59931 -10.89745,-4.41041 -15.89182,-9.33848 -6.75252,-6.66286 -9.44611,-13.41282 -9.90989,-24.83351 -0.32031,-7.88765 -0.0249,-10.45805 1.74046,-15.14482 5.94766,-15.79004 18.79793,-23.85518 38.00871,-23.85518 20.06184,0 33.84536,9.22337 38.70783,25.90172 2.42171,8.30648 1.51381,21.18845 -1.99941,28.36921 -3.54597,7.24769 -11.87243,14.89248 -19.40922,17.82022 -8.02302,3.11662 -23.51445,3.65248 -31.24666,1.08084 z m 22.56101,-19.2097 c 10.09129,-6.23675 9.7553,-25.87616 -0.56101,-32.79272 -2.91392,-1.95363 -4.46302,-2.27919 -9.25102,-1.94419 -4.6724,0.32692 -6.33658,0.95306 -8.87316,3.3385 -4.20507,3.95453 -5.87582,8.24477 -5.87582,15.08828 0,7.0474 2.86448,13.42319 7.31008,16.27083 4.35582,2.79014 12.76898,2.8093 17.25093,0.0393 z m -549.323326,-16.71229 0.26232,-36.75 11.75,-0.28174 11.749996,-0.28173 v 5.73468 5.73469 l 3.75,-3.6536 c 12.29359,-11.97756 34.04127,-10.70863 42.91365,2.50392 4.63566,6.90333 5.33635,12.0627 5.33635,39.293 v 24.45078 h -12 -12 v -21.59887 c 0,-17.91922 -0.27852,-22.1858 -1.63484,-25.04405 -4.24829,-8.95259 -18.99941,-8.4324 -24.06661,0.8487 -1.53774,2.81652 -1.84512,6.37574 -2.11969,24.54422 l -0.32114,21.25 H 88.800834 76.859654 Z m 232.762316,-0.25 v -37 h 12 12 v 5.70821 5.70821 l 4.25,-4.16681 c 5.23903,-5.13647 11.26013,-7.46089 19.75,-7.62441 8.8855,-0.17115 14.81823,2.26653 20.26778,8.32774 6.62956,7.37366 6.95663,9.09437 7.46967,39.29706 l 0.45438,26.75 H 373.9802 361.88429 l -0.0239,-19.75 c -0.0277,-22.91494 -0.64589,-26.65323 -5.06209,-30.61013 -2.92783,-2.62333 -3.69236,-2.82395 -9.23391,-2.42311 -5.48523,0.39676 -6.33656,0.77801 -9.24169,4.13876 -1.75995,2.03596 -3.47858,5.09511 -3.81918,6.79811 -0.34056,1.703 -0.61923,11.81512 -0.61923,22.47137 v 19.375 h -12 -12 z m 174,-0.0317 v -37.03173 l 11.75,0.28173 11.75,0.28174 0.30163,5.23171 0.30162,5.23171 3.60898,-3.60899 c 4.21572,-4.21571 10.1526,-7.04258 15.78777,-7.51739 l 4,-0.33704 0.28242,10.61049 0.28241,10.61049 -6.46995,0.51934 c -7.5082,0.60269 -12.47882,3.21778 -15.54447,8.17812 -1.89376,3.06412 -2.05041,4.89387 -2.05041,23.94955 v 20.63197 h -12 -12 v -37.03174 z m 58,0 v -37.03173 l 11.75,0.28173 11.75,0.28174 0.26232,36.75 0.26232,36.75 h -12.01232 -12.01232 z m 4.14348,-47.50099 c -8.70004,-7.3206 -4.93734,-20.94718 6.12854,-22.19446 8.30219,-0.93578 13.89465,4.02642 13.89465,12.32875 0,7.75317 -4.77158,12.3552 -12.83994,12.3837 -3.02148,0.0107 -5.00402,-0.68428 -7.18325,-2.51799 z m 111.85652,-98.96731 v -61.5 h 24.5 24.5 v -37 -37 h 74.00001 74 v 74 74 h -37 -37 v 24.5 24.5 h -61.50001 -61.5 z m 123.00001,-24.5 v -37 h -36.50001 -36.5 v 37 37 h 36.5 36.50001 z"
         id="path316" />
    </g>
  </g>
</svg>
