<?xml version="1.0" encoding="UTF-8" standalone="no"?>
<svg
   width="116px"
   height="116px"
   viewBox="0 0 116 116"
   version="1.1"
   id="svg104"
   sodipodi:docname="scan3fondooscuro.svg"
   inkscape:version="1.2 (dc2aedaf03, 2022-05-15)"
   xmlns:inkscape="http://www.inkscape.org/namespaces/inkscape"
   xmlns:sodipodi="http://sodipodi.sourceforge.net/DTD/sodipodi-0.dtd"
   xmlns="http://www.w3.org/2000/svg"
   xmlns:svg="http://www.w3.org/2000/svg"
   xmlns:rdf="http://www.w3.org/1999/02/22-rdf-syntax-ns#"
   xmlns:cc="http://creativecommons.org/ns#"
   xmlns:dc="http://purl.org/dc/elements/1.1/">
  <defs
     id="defs108" />
  <sodipodi:namedview
     id="namedview106"
     pagecolor="#505050"
     bordercolor="#ffffff"
     borderopacity="1"
     inkscape:showpageshadow="0"
     inkscape:pageopacity="0"
     inkscape:pagecheckerboard="1"
     inkscape:deskcolor="#505050"
     showgrid="false"
     inkscape:zoom="7.0172414"
     inkscape:cx="58.071253"
     inkscape:cy="46.813268"
     inkscape:window-width="1920"
     inkscape:window-height="1001"
     inkscape:window-x="-9"
     inkscape:window-y="-9"
     inkscape:window-maximized="1"
     inkscape:current-layer="Artboard" />
  <!-- Generator: Sketch 54.1 (76490) - https://sketchapp.com -->
  <title
     id="title56">Scan</title>
  <desc
     id="desc58">Created with Sketch.</desc>
  <g
     id="Artboard"
     stroke="none"
     stroke-width="1"
     fill="none"
     fill-rule="evenodd">
    <g
       id="Code"
       transform="translate(24.000000, 34.000000)"
       fill="#000000"
       fill-rule="nonzero">
      <rect
         id="Rectangle"
         x="0"
         y="0"
         width="6"
         height="20"
         style="fill:#ffffff" />
      <polygon
         id="Path"
         points="14 10.0494169 14 20 10 20 10 0 22.0001663 0 22.0001663 19.997563 20.0000302 19.997563 20.0000302 10.0494169"
         style="fill:#ffffff" />
      <rect
         id="Rectangle-Copy"
         x="0"
         y="27"
         width="6"
         height="20"
         style="fill:#ffffff" />
      <rect
         id="Rectangle-Copy-3"
         x="10"
         y="27"
         width="4"
         height="20"
         style="fill:#ffffff" />
      <rect
         id="rect65"
         x="64"
         y="0"
         width="4"
         height="20"
         style="fill:#ffffff" />
      <polygon
         id="polygon67"
         points="57.9996549 37.0518539 55.9999178 37.0518539 55.9999178 27.1037077 64 27.1037077 64 27 68 27 68 47 64 47 64 37.0518539 61.999507 37.0518539 61.999507 47 57.9996549 47 57.9996549 37.0518539"
         style="fill:#ffffff" />
      <polygon
         id="polygon69"
         points="27.9998186 10.0494169 27.9998186 19.997563 23.9999244 19.997563 23.9999244 10.0494169 26.0000605 10.0494169 26.0000605 0.101270738 28.0001965 0.101270738 28.0001965 10.0494169"
         style="fill:#ffffff" />
      <rect
         id="rect71"
         x="29.9999546"
         y="0.101270738"
         width="2.00013606"
         height="9.94814614"
         style="fill:#ffffff" />
      <polygon
         id="polygon73"
         points="45.9999093 10.0494169 45.9999093 0.101270738 48.0000454 0.101270738 48.0000454 19.997563 35.9999849 19.997563 35.9999849 0.101270738 44.0001512 0.101270738 44.0001512 10.0494169 45.9999093 10.0494169"
         style="fill:#ffffff" />
      <polygon
         id="polygon75"
         points="52.0003175 0.101270738 52.0003175 19.997563 50.0001814 19.997563 50.0001814 0.101270738"
         style="fill:#ffffff" />
      <polygon
         id="polygon77"
         points="56.0002117 10.0494169 56.0002117 19.997563 54.0000756 19.997563 54.0000756 0.101270738 62.0002419 0.101270738 62.0002419 19.997563 57.9999698 19.997563 57.9999698 10.0494169"
         style="fill:#ffffff" />
      <polygon
         id="polygon79"
         points="21.9998521 37.0518539 21.9998521 47 18 47 18 27.1037077 23.9999671 27.1037077 23.9999671 37.0518539"
         style="fill:#ffffff" />
      <polygon
         id="polygon81"
         points="38.0000164 37.0518539 40.0001315 37.0518539 40.0001315 27.1037077 42.0002465 27.1037077 42.0002465 37.0518539 41.9998685 47 35.9999014 47 35.9999014 27.1037077 38.0000164 27.1037077"
         style="fill:#ffffff" />
      <polygon
         id="polygon83"
         points="52.0000657 37.0518539 53.9998028 37.0518539 53.9998028 47 47.9998357 47 47.9998357 37.0518539 43.9999836 37.0518539 43.9999836 27.1037077 52.0000657 27.1037077"
         style="fill:#ffffff" />
      <rect
         id="rect85"
         x="23.9999671"
         y="37.0518539"
         width="5.99996713"
         height="9.94814614"
         style="fill:#ffffff" />
      <rect
         id="rect87"
         x="32.0000493"
         y="37.0518539"
         width="2.00011503"
         height="9.94814614"
         style="fill:#ffffff" />
      <rect
         id="rect89"
         x="43.9999836"
         y="37.0518539"
         width="2.00011503"
         height="9.94814614"
         style="fill:#ffffff" />
    </g>
    <g
       id="Scanner"
       transform="translate(11.500000, 10.500000)"
       fill="#DC2222"
       fill-rule="nonzero">
      <polygon
         id="polygon92"
         points="7.2 7.2 21.6 7.2 21.6 0 0 0 0 21.6 7.2 21.6"
         style="fill:#ee3124;fill-opacity:1" />
      <polygon
         id="polygon94"
         points="73.4 0 73.4 7.2 87.8 7.2 87.8 21.6 95 21.6 95 0"
         style="fill:#ee3124;fill-opacity:1" />
      <polygon
         id="polygon96"
         points="87.8 87.8 73.4 87.8 73.4 95 95 95 95 73.4 87.8 73.4"
         style="fill:#ee3124;fill-opacity:1" />
      <polygon
         id="polygon98"
         points="7.2 73.4 0 73.4 0 95 21.6 95 21.6 87.8 7.2 87.8"
         style="fill:#ee3124;fill-opacity:1" />
      <polygon
         id="polygon100"
         points="0 55.3 95 55.3 95 48.1 0 48.1"
         style="fill:#ee3124;fill-opacity:1" />
    </g>
  </g>
  <metadata
     id="metadata19552">
    <rdf:RDF>
      <cc:Work
         rdf:about="">
        <dc:title>Scan</dc:title>
      </cc:Work>
    </rdf:RDF>
  </metadata>
</svg>
